<svg xmlns="http://www.w3.org/2000/svg" xmlns:xlink="http://www.w3.org/1999/xlink" width="1000" zoomAndPan="magnify" viewBox="0 0 750 187.499995" height="250" preserveAspectRatio="xMidYMid meet" version="1.0"><defs><g/><clipPath id="id1"><path d="M 634.058594 67 L 671 67 L 671 100 L 634.058594 100 Z M 634.058594 67 " clip-rule="nonzero"/></clipPath><clipPath id="id2"><path d="M 655 30.253906 L 704 30.253906 L 704 100 L 655 100 Z M 655 30.253906 " clip-rule="nonzero"/></clipPath><clipPath id="id3"><path d="M 703 72 L 740.273438 72 L 740.273438 106 L 703 106 Z M 703 72 " clip-rule="nonzero"/></clipPath><clipPath id="id4"><path d="M 670 72 L 719 72 L 719 142.453125 L 670 142.453125 Z M 670 72 " clip-rule="nonzero"/></clipPath><clipPath id="id5"><path d="M 629.589844 60 L 667 60 L 667 93 L 629.589844 93 Z M 629.589844 60 " clip-rule="nonzero"/></clipPath><clipPath id="id6"><path d="M 651 23.429688 L 699 23.429688 L 699 93 L 651 93 Z M 651 23.429688 " clip-rule="nonzero"/></clipPath><clipPath id="id7"><path d="M 698 66 L 735.808594 66 L 735.808594 99 L 698 99 Z M 698 66 " clip-rule="nonzero"/></clipPath><clipPath id="id8"><path d="M 666 66 L 715 66 L 715 135.628906 L 666 135.628906 Z M 666 66 " clip-rule="nonzero"/></clipPath></defs><g fill="#004aad" fill-opacity="1"><g transform="translate(16.448648, 125.290882)"><g><path d="M 50.875 -70.734375 C 61.5 -70.734375 69.5 -68.695312 74.875 -64.625 C 80.257812 -60.5625 82.953125 -54.597656 82.953125 -46.734375 C 82.953125 -42.835938 82.242188 -38.34375 80.828125 -33.25 C 78.492188 -25.03125 75.34375 -18.515625 71.375 -13.703125 C 67.414062 -8.890625 62.195312 -5.382812 55.71875 -3.1875 C 49.238281 -0.988281 40.929688 0.0703125 30.796875 0 L 1.90625 -0.109375 C 0.425781 -0.109375 -0.71875 -0.351562 -1.53125 -0.84375 C -2.351562 -1.34375 -2.765625 -2.019531 -2.765625 -2.875 C -2.765625 -3.289062 -2.65625 -3.75 -2.4375 -4.25 C -2.226562 -4.882812 -1.925781 -5.34375 -1.53125 -5.625 C -1.144531 -5.90625 -0.5625 -6.296875 0.21875 -6.796875 C 1.34375 -7.429688 2.242188 -8.140625 2.921875 -8.921875 C 3.597656 -9.703125 4.179688 -10.941406 4.671875 -12.640625 L 17.625 -58.3125 C 17.914062 -59.226562 18.0625 -60.113281 18.0625 -60.96875 C 18.0625 -61.75 17.9375 -62.40625 17.6875 -62.9375 C 17.4375 -63.46875 17.097656 -64.085938 16.671875 -64.796875 C 16.035156 -65.710938 15.71875 -66.457031 15.71875 -67.03125 C 15.71875 -67.238281 15.789062 -67.625 15.9375 -68.1875 C 16.21875 -69.113281 16.832031 -69.769531 17.78125 -70.15625 C 18.738281 -70.539062 20.210938 -70.734375 22.203125 -70.734375 Z M 53.640625 -35.578125 C 55.484375 -42.234375 56.40625 -47.472656 56.40625 -51.296875 C 56.40625 -55.054688 55.625 -57.644531 54.0625 -59.0625 C 52.507812 -60.476562 50.28125 -61.1875 47.375 -61.1875 L 45.03125 -61.1875 L 30.703125 -9.5625 L 33.25 -9.5625 C 36.5 -9.5625 39.238281 -10.25 41.46875 -11.625 C 43.707031 -13.007812 45.78125 -15.5625 47.6875 -19.28125 C 49.601562 -23 51.585938 -28.429688 53.640625 -35.578125 Z M 53.640625 -35.578125 "/></g></g></g><g fill="#004aad" fill-opacity="1"><g transform="translate(98.447949, 125.290882)"><g><path d="M 69.359375 -70.734375 C 71.984375 -70.734375 74.019531 -70.164062 75.46875 -69.03125 C 76.914062 -67.90625 77.640625 -66.351562 77.640625 -64.375 C 77.640625 -63.375 77.5 -62.414062 77.21875 -61.5 L 74.453125 -51.625 C 73.960938 -49.707031 73.238281 -48.378906 72.28125 -47.640625 C 71.320312 -46.898438 69.957031 -46.53125 68.1875 -46.53125 C 66.488281 -46.53125 65.160156 -46.898438 64.203125 -47.640625 C 63.253906 -48.378906 62.53125 -49.597656 62.03125 -51.296875 L 60.328125 -57.359375 C 59.972656 -58.628906 59.546875 -59.476562 59.046875 -59.90625 C 58.554688 -60.332031 57.601562 -60.546875 56.1875 -60.546875 L 45.03125 -60.546875 L 39.71875 -41.640625 L 44.40625 -41.640625 C 44.894531 -41.640625 45.566406 -41.992188 46.421875 -42.703125 L 50.03125 -45.890625 C 51.09375 -46.804688 52.007812 -47.476562 52.78125 -47.90625 C 53.5625 -48.332031 54.519531 -48.546875 55.65625 -48.546875 C 56.9375 -48.546875 57.984375 -48.207031 58.796875 -47.53125 C 59.609375 -46.863281 60.015625 -46 60.015625 -44.9375 C 60.015625 -44.644531 59.941406 -44.21875 59.796875 -43.65625 L 55.453125 -28.890625 C 55.023438 -27.335938 54.296875 -26.1875 53.265625 -25.4375 C 52.242188 -24.695312 51.128906 -24.328125 49.921875 -24.328125 C 47.941406 -24.328125 46.457031 -25.351562 45.46875 -27.40625 L 43.65625 -31.125 C 43.15625 -32.1875 42.375 -32.71875 41.3125 -32.71875 L 37.171875 -32.71875 L 30.90625 -10.203125 L 40.25 -10.203125 C 41.601562 -10.203125 42.789062 -10.46875 43.8125 -11 C 44.84375 -11.53125 45.957031 -12.46875 47.15625 -13.8125 L 53.53125 -20.8125 C 54.664062 -22.019531 55.742188 -22.890625 56.765625 -23.421875 C 57.796875 -23.953125 59.054688 -24.21875 60.546875 -24.21875 C 62.097656 -24.21875 63.367188 -23.863281 64.359375 -23.15625 C 65.359375 -22.445312 65.859375 -21.382812 65.859375 -19.96875 C 65.859375 -19.40625 65.75 -18.734375 65.53125 -17.953125 L 62.453125 -7.21875 C 61.671875 -4.53125 60.535156 -2.65625 59.046875 -1.59375 C 57.566406 -0.53125 55.410156 0 52.578125 0 L 1.90625 0 C 0.425781 0 -0.71875 -0.242188 -1.53125 -0.734375 C -2.351562 -1.234375 -2.765625 -1.910156 -2.765625 -2.765625 C -2.765625 -3.191406 -2.65625 -3.648438 -2.4375 -4.140625 C -2.15625 -4.921875 -1.695312 -5.519531 -1.0625 -5.9375 C -0.425781 -6.363281 -0.0351562 -6.613281 0.109375 -6.6875 C 1.242188 -7.394531 2.164062 -8.117188 2.875 -8.859375 C 3.582031 -9.609375 4.179688 -10.832031 4.671875 -12.53125 L 17.734375 -58.3125 C 18.015625 -59.226562 18.15625 -60.078125 18.15625 -60.859375 C 18.15625 -61.710938 18.03125 -62.421875 17.78125 -62.984375 C 17.539062 -63.554688 17.171875 -64.160156 16.671875 -64.796875 C 16.035156 -65.710938 15.71875 -66.457031 15.71875 -67.03125 C 15.71875 -67.238281 15.789062 -67.625 15.9375 -68.1875 C 16.21875 -69.113281 16.851562 -69.769531 17.84375 -70.15625 C 18.832031 -70.539062 20.285156 -70.734375 22.203125 -70.734375 Z M 69.359375 -70.734375 "/></g></g></g><g fill="#004aad" fill-opacity="1"><g transform="translate(169.719362, 125.290882)"><g><path d="M 39.71875 -71.375 C 43.6875 -71.375 47.351562 -70.894531 50.71875 -69.9375 C 54.082031 -68.988281 57.5 -67.488281 60.96875 -65.4375 L 63.40625 -67.453125 C 65.113281 -68.796875 66.515625 -69.710938 67.609375 -70.203125 C 68.703125 -70.703125 69.957031 -70.953125 71.375 -70.953125 C 73.070312 -70.953125 74.414062 -70.578125 75.40625 -69.828125 C 76.40625 -69.085938 76.90625 -68.007812 76.90625 -66.59375 C 76.90625 -66.03125 76.796875 -65.429688 76.578125 -64.796875 L 72.125 -50.140625 C 71.625 -48.441406 71.003906 -47.238281 70.265625 -46.53125 C 69.523438 -45.820312 68.410156 -45.46875 66.921875 -45.46875 C 65.359375 -45.46875 63.992188 -45.941406 62.828125 -46.890625 C 61.660156 -47.847656 59.835938 -49.816406 57.359375 -52.796875 C 54.878906 -55.628906 52.628906 -57.628906 50.609375 -58.796875 C 48.597656 -59.960938 46.53125 -60.546875 44.40625 -60.546875 C 42.84375 -60.546875 41.53125 -60.03125 40.46875 -59 C 39.40625 -57.976562 38.875 -56.722656 38.875 -55.234375 C 38.875 -53.535156 39.722656 -51.957031 41.421875 -50.5 C 43.117188 -49.050781 45.773438 -47.226562 49.390625 -45.03125 C 53.078125 -42.84375 56.125 -40.863281 58.53125 -39.09375 C 60.9375 -37.320312 62.988281 -35.125 64.6875 -32.5 C 66.382812 -29.882812 67.234375 -26.875 67.234375 -23.46875 C 67.234375 -21.28125 66.878906 -19.085938 66.171875 -16.890625 C 64.472656 -11.222656 61.179688 -6.921875 56.296875 -3.984375 C 51.410156 -1.046875 45.707031 0.421875 39.1875 0.421875 C 34.300781 0.421875 30.191406 -0.140625 26.859375 -1.265625 C 23.535156 -2.398438 20.140625 -4.316406 16.671875 -7.015625 L 12.859375 -3.828125 C 11.085938 -2.335938 9.632812 -1.328125 8.5 -0.796875 C 7.363281 -0.265625 6.085938 0 4.671875 0 C 3.046875 0 1.753906 -0.390625 0.796875 -1.171875 C -0.160156 -1.953125 -0.640625 -3.015625 -0.640625 -4.359375 C -0.640625 -5.066406 -0.5 -5.804688 -0.21875 -6.578125 L 5 -22.40625 C 5.5625 -24.25 6.335938 -25.5625 7.328125 -26.34375 C 8.316406 -27.125 9.59375 -27.515625 11.15625 -27.515625 C 12.78125 -27.515625 14.25 -26.945312 15.5625 -25.8125 C 16.875 -24.675781 18.59375 -22.625 20.71875 -19.65625 C 22.976562 -16.394531 25.082031 -14.125 27.03125 -12.84375 C 28.976562 -11.570312 31.296875 -10.9375 33.984375 -10.9375 C 35.898438 -10.9375 37.367188 -11.238281 38.390625 -11.84375 C 39.421875 -12.445312 40.148438 -13.421875 40.578125 -14.765625 C 40.710938 -15.117188 40.78125 -15.648438 40.78125 -16.359375 C 40.78125 -18.054688 39.96875 -19.613281 38.34375 -21.03125 C 36.71875 -22.445312 34.203125 -24.144531 30.796875 -26.125 C 27.191406 -28.320312 24.253906 -30.285156 21.984375 -32.015625 C 19.722656 -33.753906 17.757812 -35.929688 16.09375 -38.546875 C 14.425781 -41.171875 13.59375 -44.253906 13.59375 -47.796875 C 13.59375 -50.273438 13.984375 -52.71875 14.765625 -55.125 C 16.253906 -60.007812 19.296875 -63.9375 23.890625 -66.90625 C 28.492188 -69.882812 33.769531 -71.375 39.71875 -71.375 Z M 39.71875 -71.375 "/></g></g></g><g fill="#004aad" fill-opacity="1"><g transform="translate(242.902677, 125.290882)"><g><path d="M 64.90625 -12.53125 C 64.613281 -11.613281 64.46875 -10.691406 64.46875 -9.765625 C 64.46875 -8.992188 64.570312 -8.34375 64.78125 -7.8125 C 65 -7.28125 65.234375 -6.851562 65.484375 -6.53125 C 65.734375 -6.207031 65.894531 -5.976562 65.96875 -5.84375 C 66.675781 -5.132812 67.03125 -4.425781 67.03125 -3.71875 C 67.03125 -3.570312 66.957031 -3.21875 66.8125 -2.65625 C 66.53125 -1.664062 65.910156 -0.972656 64.953125 -0.578125 C 63.992188 -0.191406 62.523438 0 60.546875 0 L 35.375 0 C 33.882812 0 32.734375 -0.242188 31.921875 -0.734375 C 31.109375 -1.234375 30.703125 -1.910156 30.703125 -2.765625 C 30.703125 -3.191406 30.804688 -3.648438 31.015625 -4.140625 C 31.222656 -4.710938 31.519531 -5.15625 31.90625 -5.46875 C 32.300781 -5.789062 32.851562 -6.160156 33.5625 -6.578125 C 34.695312 -7.222656 35.617188 -7.929688 36.328125 -8.703125 C 37.035156 -9.484375 37.632812 -10.757812 38.125 -12.53125 L 40.890625 -21.671875 L 24.328125 -21.671875 L 21.453125 -15.609375 C 20.253906 -12.992188 19.65625 -10.941406 19.65625 -9.453125 C 19.65625 -8.597656 19.796875 -7.90625 20.078125 -7.375 C 20.359375 -6.84375 20.78125 -6.296875 21.34375 -5.734375 C 21.84375 -5.171875 22.179688 -4.691406 22.359375 -4.296875 C 22.535156 -3.910156 22.550781 -3.398438 22.40625 -2.765625 C 22.125 -1.703125 21.539062 -0.972656 20.65625 -0.578125 C 19.769531 -0.191406 18.375 0 16.46875 0 L 0.640625 0 C -0.992188 0 -2.234375 -0.300781 -3.078125 -0.90625 C -3.929688 -1.507812 -4.359375 -2.304688 -4.359375 -3.296875 C -4.359375 -4.429688 -3.945312 -5.332031 -3.125 -6 C -2.3125 -6.675781 -1.09375 -7.398438 0.53125 -8.171875 C 2.65625 -9.234375 4.351562 -10.28125 5.625 -11.3125 C 6.90625 -12.34375 8.003906 -13.773438 8.921875 -15.609375 L 27.828125 -54.8125 C 30.734375 -60.894531 34.148438 -65.300781 38.078125 -68.03125 C 42.003906 -70.757812 47.191406 -72.125 53.640625 -72.125 C 60.859375 -72.125 66.453125 -70.65625 70.421875 -67.71875 C 74.390625 -64.78125 76.375 -60.691406 76.375 -55.453125 C 76.375 -53.253906 76.019531 -50.984375 75.3125 -48.640625 Z M 44.078125 -32.296875 L 49.703125 -50.984375 C 49.992188 -51.835938 50.140625 -52.722656 50.140625 -53.640625 C 50.140625 -54.984375 49.765625 -55.988281 49.015625 -56.65625 C 48.273438 -57.332031 47.234375 -57.671875 45.890625 -57.671875 C 44.191406 -57.671875 42.738281 -57.175781 41.53125 -56.1875 C 40.320312 -55.195312 39.117188 -53.425781 37.921875 -50.875 L 29.203125 -32.296875 Z M 44.078125 -32.296875 "/></g></g></g><g fill="#004aad" fill-opacity="1"><g transform="translate(317.041942, 125.290882)"><g><path d="M 60.859375 -27.40625 C 62.847656 -27.40625 64.351562 -27 65.375 -26.1875 C 66.40625 -25.375 66.921875 -24.222656 66.921875 -22.734375 C 66.921875 -22.097656 66.8125 -21.390625 66.59375 -20.609375 L 63.09375 -8.171875 C 62.175781 -5.128906 60.882812 -3.003906 59.21875 -1.796875 C 57.550781 -0.597656 55.085938 0 51.828125 0 L 1.90625 0 C 0.425781 0 -0.71875 -0.242188 -1.53125 -0.734375 C -2.351562 -1.234375 -2.765625 -1.910156 -2.765625 -2.765625 C -2.765625 -3.191406 -2.65625 -3.648438 -2.4375 -4.140625 C -2.226562 -4.710938 -1.875 -5.191406 -1.375 -5.578125 C -0.882812 -5.960938 -0.351562 -6.332031 0.21875 -6.6875 C 1.34375 -7.394531 2.257812 -8.117188 2.96875 -8.859375 C 3.675781 -9.609375 4.28125 -10.832031 4.78125 -12.53125 L 17.734375 -58.3125 C 18.015625 -59.226562 18.15625 -60.113281 18.15625 -60.96875 C 18.15625 -61.75 18.03125 -62.40625 17.78125 -62.9375 C 17.539062 -63.46875 17.207031 -64.085938 16.78125 -64.796875 C 16.144531 -65.710938 15.828125 -66.457031 15.828125 -67.03125 C 15.828125 -67.238281 15.894531 -67.625 16.03125 -68.1875 C 16.320312 -69.113281 16.941406 -69.769531 17.890625 -70.15625 C 18.847656 -70.539062 20.320312 -70.734375 22.3125 -70.734375 L 47.265625 -70.734375 C 48.753906 -70.734375 49.90625 -70.503906 50.71875 -70.046875 C 51.53125 -69.585938 51.9375 -68.9375 51.9375 -68.09375 C 51.9375 -67.738281 51.832031 -67.273438 51.625 -66.703125 C 51.40625 -66.210938 51.101562 -65.769531 50.71875 -65.375 C 50.332031 -64.988281 49.976562 -64.707031 49.65625 -64.53125 C 49.332031 -64.351562 49.101562 -64.191406 48.96875 -64.046875 C 47.832031 -63.410156 46.910156 -62.703125 46.203125 -61.921875 C 45.492188 -61.140625 44.894531 -59.9375 44.40625 -58.3125 L 30.703125 -10.203125 L 37.28125 -10.203125 C 38.90625 -10.203125 40.300781 -10.484375 41.46875 -11.046875 C 42.644531 -11.609375 43.867188 -12.671875 45.140625 -14.234375 L 52.46875 -22.9375 C 53.8125 -24.5 55.101562 -25.632812 56.34375 -26.34375 C 57.582031 -27.050781 59.085938 -27.40625 60.859375 -27.40625 Z M 60.859375 -27.40625 "/></g></g></g><g fill="#004aad" fill-opacity="1"><g transform="translate(386.189012, 125.290882)"><g><path d="M 69.359375 -70.734375 C 71.984375 -70.734375 74.019531 -70.164062 75.46875 -69.03125 C 76.914062 -67.90625 77.640625 -66.351562 77.640625 -64.375 C 77.640625 -63.375 77.5 -62.414062 77.21875 -61.5 L 74.453125 -51.625 C 73.960938 -49.707031 73.238281 -48.378906 72.28125 -47.640625 C 71.320312 -46.898438 69.957031 -46.53125 68.1875 -46.53125 C 66.488281 -46.53125 65.160156 -46.898438 64.203125 -47.640625 C 63.253906 -48.378906 62.53125 -49.597656 62.03125 -51.296875 L 60.328125 -57.359375 C 59.972656 -58.628906 59.546875 -59.476562 59.046875 -59.90625 C 58.554688 -60.332031 57.601562 -60.546875 56.1875 -60.546875 L 45.03125 -60.546875 L 39.71875 -41.640625 L 44.40625 -41.640625 C 44.894531 -41.640625 45.566406 -41.992188 46.421875 -42.703125 L 50.03125 -45.890625 C 51.09375 -46.804688 52.007812 -47.476562 52.78125 -47.90625 C 53.5625 -48.332031 54.519531 -48.546875 55.65625 -48.546875 C 56.9375 -48.546875 57.984375 -48.207031 58.796875 -47.53125 C 59.609375 -46.863281 60.015625 -46 60.015625 -44.9375 C 60.015625 -44.644531 59.941406 -44.21875 59.796875 -43.65625 L 55.453125 -28.890625 C 55.023438 -27.335938 54.296875 -26.1875 53.265625 -25.4375 C 52.242188 -24.695312 51.128906 -24.328125 49.921875 -24.328125 C 47.941406 -24.328125 46.457031 -25.351562 45.46875 -27.40625 L 43.65625 -31.125 C 43.15625 -32.1875 42.375 -32.71875 41.3125 -32.71875 L 37.171875 -32.71875 L 30.90625 -10.203125 L 40.25 -10.203125 C 41.601562 -10.203125 42.789062 -10.46875 43.8125 -11 C 44.84375 -11.53125 45.957031 -12.46875 47.15625 -13.8125 L 53.53125 -20.8125 C 54.664062 -22.019531 55.742188 -22.890625 56.765625 -23.421875 C 57.796875 -23.953125 59.054688 -24.21875 60.546875 -24.21875 C 62.097656 -24.21875 63.367188 -23.863281 64.359375 -23.15625 C 65.359375 -22.445312 65.859375 -21.382812 65.859375 -19.96875 C 65.859375 -19.40625 65.75 -18.734375 65.53125 -17.953125 L 62.453125 -7.21875 C 61.671875 -4.53125 60.535156 -2.65625 59.046875 -1.59375 C 57.566406 -0.53125 55.410156 0 52.578125 0 L 1.90625 0 C 0.425781 0 -0.71875 -0.242188 -1.53125 -0.734375 C -2.351562 -1.234375 -2.765625 -1.910156 -2.765625 -2.765625 C -2.765625 -3.191406 -2.65625 -3.648438 -2.4375 -4.140625 C -2.15625 -4.921875 -1.695312 -5.519531 -1.0625 -5.9375 C -0.425781 -6.363281 -0.0351562 -6.613281 0.109375 -6.6875 C 1.242188 -7.394531 2.164062 -8.117188 2.875 -8.859375 C 3.582031 -9.609375 4.179688 -10.832031 4.671875 -12.53125 L 17.734375 -58.3125 C 18.015625 -59.226562 18.15625 -60.078125 18.15625 -60.859375 C 18.15625 -61.710938 18.03125 -62.421875 17.78125 -62.984375 C 17.539062 -63.554688 17.171875 -64.160156 16.671875 -64.796875 C 16.035156 -65.710938 15.71875 -66.457031 15.71875 -67.03125 C 15.71875 -67.238281 15.789062 -67.625 15.9375 -68.1875 C 16.21875 -69.113281 16.851562 -69.769531 17.84375 -70.15625 C 18.832031 -70.539062 20.285156 -70.734375 22.203125 -70.734375 Z M 69.359375 -70.734375 "/></g></g></g><g fill="#004aad" fill-opacity="1"><g transform="translate(457.460436, 125.290882)"><g><path d="M 81.15625 -49.171875 C 80.019531 -45.066406 77.894531 -41.863281 74.78125 -39.5625 C 71.664062 -37.257812 67.734375 -35.828125 62.984375 -35.265625 C 66.390625 -34.984375 68.941406 -33.988281 70.640625 -32.28125 C 72.335938 -30.582031 73.1875 -28.351562 73.1875 -25.59375 C 73.1875 -24.53125 73.007812 -23.222656 72.65625 -21.671875 L 71.484375 -16.46875 C 71.335938 -15.757812 71.265625 -15.265625 71.265625 -14.984375 C 71.265625 -14.054688 71.476562 -13.363281 71.90625 -12.90625 C 72.332031 -12.445312 72.9375 -12.21875 73.71875 -12.21875 C 75.207031 -12.21875 76.285156 -12.003906 76.953125 -11.578125 C 77.628906 -11.148438 77.859375 -10.367188 77.640625 -9.234375 C 77.359375 -7.609375 76.507812 -6.015625 75.09375 -4.453125 C 73.675781 -2.898438 71.675781 -1.609375 69.09375 -0.578125 C 66.507812 0.441406 63.375 0.953125 59.6875 0.953125 C 55.019531 0.953125 51.304688 -0.0859375 48.546875 -2.171875 C 45.785156 -4.265625 44.40625 -7.257812 44.40625 -11.15625 C 44.40625 -12.644531 44.613281 -14.238281 45.03125 -15.9375 L 46.734375 -22.734375 C 47.015625 -23.648438 47.15625 -24.601562 47.15625 -25.59375 C 47.15625 -27.226562 46.609375 -28.398438 45.515625 -29.109375 C 44.421875 -29.816406 42.664062 -30.171875 40.25 -30.171875 L 36.21875 -30.171875 L 31.328125 -12.53125 C 31.191406 -12.101562 31.125 -11.570312 31.125 -10.9375 C 31.125 -9.945312 31.367188 -9.097656 31.859375 -8.390625 C 32.359375 -7.679688 33.035156 -6.9375 33.890625 -6.15625 C 34.523438 -5.664062 35.019531 -5.1875 35.375 -4.71875 C 35.726562 -4.257812 35.90625 -3.785156 35.90625 -3.296875 C 35.90625 -2.085938 35.335938 -1.234375 34.203125 -0.734375 C 33.066406 -0.242188 31.398438 0 29.203125 0 L 2.546875 0 C 0.703125 0 -0.675781 -0.332031 -1.59375 -1 C -2.507812 -1.675781 -2.828125 -2.617188 -2.546875 -3.828125 C -2.410156 -4.460938 -2.144531 -4.972656 -1.75 -5.359375 C -1.363281 -5.753906 -0.78125 -6.195312 0 -6.6875 C 1.207031 -7.394531 2.164062 -8.140625 2.875 -8.921875 C 3.582031 -9.703125 4.144531 -10.90625 4.5625 -12.53125 L 17.53125 -58.3125 C 17.8125 -59.226562 17.953125 -60.113281 17.953125 -60.96875 C 17.953125 -61.75 17.828125 -62.40625 17.578125 -62.9375 C 17.328125 -63.46875 16.988281 -64.085938 16.5625 -64.796875 C 15.925781 -65.710938 15.609375 -66.457031 15.609375 -67.03125 C 15.609375 -67.238281 15.679688 -67.625 15.828125 -68.1875 C 16.109375 -69.113281 16.726562 -69.769531 17.6875 -70.15625 C 18.644531 -70.539062 20.113281 -70.734375 22.09375 -70.734375 L 57.671875 -70.734375 C 62.554688 -70.734375 66.820312 -69.988281 70.46875 -68.5 C 74.125 -67.019531 76.921875 -64.988281 78.859375 -62.40625 C 80.804688 -59.820312 81.78125 -56.898438 81.78125 -53.640625 C 81.78125 -52.148438 81.570312 -50.660156 81.15625 -49.171875 Z M 53.953125 -50.234375 C 54.304688 -51.867188 54.484375 -53.109375 54.484375 -53.953125 C 54.484375 -57.710938 52.429688 -59.59375 48.328125 -59.59375 L 43.875 -59.59375 L 39.1875 -40.78125 L 43.65625 -40.78125 C 46.414062 -40.78125 48.59375 -41.453125 50.1875 -42.796875 C 51.78125 -44.148438 53.035156 -46.628906 53.953125 -50.234375 Z M 53.953125 -50.234375 "/></g></g></g><g fill="#004aad" fill-opacity="1"><g transform="translate(538.078914, 125.290882)"><g><path d="M 85.078125 -70.734375 C 88.972656 -70.734375 90.921875 -69.144531 90.921875 -65.96875 C 90.921875 -64.96875 90.707031 -63.726562 90.28125 -62.25 L 87.734375 -53.640625 C 86.953125 -51.015625 85.992188 -49.171875 84.859375 -48.109375 C 83.734375 -47.054688 82.109375 -46.53125 79.984375 -46.53125 C 78.210938 -46.53125 76.847656 -46.988281 75.890625 -47.90625 C 74.929688 -48.820312 74.03125 -50.273438 73.1875 -52.265625 L 71.375 -56.609375 C 70.8125 -57.953125 70.210938 -58.875 69.578125 -59.375 C 68.941406 -59.875 67.945312 -60.125 66.59375 -60.125 L 64.15625 -60.125 L 50.671875 -12.640625 C 50.453125 -11.722656 50.34375 -10.910156 50.34375 -10.203125 C 50.34375 -9.347656 50.46875 -8.632812 50.71875 -8.0625 C 50.96875 -7.5 51.335938 -6.898438 51.828125 -6.265625 C 52.472656 -5.273438 52.796875 -4.460938 52.796875 -3.828125 C 52.796875 -3.679688 52.722656 -3.328125 52.578125 -2.765625 C 52.222656 -1.835938 51.53125 -1.160156 50.5 -0.734375 C 49.476562 -0.316406 48.007812 -0.109375 46.09375 -0.109375 L 21.140625 -0.109375 C 19.648438 -0.109375 18.5 -0.351562 17.6875 -0.84375 C 16.875 -1.34375 16.46875 -2.050781 16.46875 -2.96875 C 16.46875 -3.394531 16.570312 -3.820312 16.78125 -4.25 C 17.0625 -4.882812 17.394531 -5.359375 17.78125 -5.671875 C 18.175781 -5.992188 18.765625 -6.40625 19.546875 -6.90625 C 20.609375 -7.539062 21.492188 -8.25 22.203125 -9.03125 C 22.910156 -9.8125 23.507812 -11.015625 24 -12.640625 L 37.390625 -60.125 L 34.953125 -60.125 C 33.390625 -60.125 32.113281 -59.875 31.125 -59.375 C 30.132812 -58.875 29.070312 -57.953125 27.9375 -56.609375 L 24.4375 -52.265625 C 22.800781 -50.347656 21.222656 -48.910156 19.703125 -47.953125 C 18.179688 -47.003906 16.535156 -46.53125 14.765625 -46.53125 C 13.140625 -46.53125 11.863281 -46.953125 10.9375 -47.796875 C 10.019531 -48.648438 9.5625 -49.816406 9.5625 -51.296875 C 9.5625 -52.003906 9.664062 -52.785156 9.875 -53.640625 L 12.640625 -63.3125 C 13.203125 -65.289062 13.835938 -66.789062 14.546875 -67.8125 C 15.253906 -68.84375 16.265625 -69.585938 17.578125 -70.046875 C 18.890625 -70.503906 20.75 -70.734375 23.15625 -70.734375 Z M 85.078125 -70.734375 "/></g></g></g><g clip-path="url(#id1)"><path fill="#0a5ba6" d="M 650.28125 67.269531 L 670.941406 67.269531 C 670.941406 87.207031 662.304688 99.191406 655.585938 99.761719 C 655.164062 99.777344 654.738281 99.785156 654.308594 99.785156 L 650.28125 99.785156 C 645.800781 99.785156 641.746094 97.964844 638.808594 95.023438 C 635.871094 92.082031 634.054688 88.015625 634.054688 83.527344 C 634.054688 74.546875 641.320312 67.269531 650.28125 67.269531 " fill-opacity="1" fill-rule="nonzero"/></g><g clip-path="url(#id2)"><path fill="#004aad" d="M 703.390625 46.570312 L 703.390625 55.890625 C 703.390625 63.175781 700.503906 70.160156 695.363281 75.3125 L 682.699219 88.003906 C 675.472656 95.246094 665.773438 99.441406 655.585938 99.761719 C 662.304688 99.191406 670.941406 87.207031 670.941406 67.269531 L 670.941406 46.570312 C 670.941406 37.589844 678.203125 30.3125 687.164062 30.3125 C 696.125 30.3125 703.390625 37.589844 703.390625 46.570312 " fill-opacity="1" fill-rule="nonzero"/></g><g clip-path="url(#id3)"><path fill="#0a5ba6" d="M 724.050781 105.449219 L 703.390625 105.449219 C 703.390625 85.511719 712.027344 73.523438 718.746094 72.953125 C 719.167969 72.9375 719.59375 72.933594 720.019531 72.933594 L 724.050781 72.933594 C 728.53125 72.933594 732.585938 74.75 735.523438 77.695312 C 738.460938 80.636719 740.277344 84.699219 740.277344 89.191406 C 740.277344 98.171875 733.011719 105.449219 724.050781 105.449219 " fill-opacity="1" fill-rule="nonzero"/></g><g clip-path="url(#id4)"><path fill="#004aad" d="M 670.941406 126.148438 L 670.941406 116.824219 C 670.941406 109.539062 673.824219 102.554688 678.96875 97.40625 L 691.632812 84.714844 C 698.859375 77.472656 708.558594 73.277344 718.746094 72.953125 C 712.027344 73.523438 703.390625 85.511719 703.390625 105.449219 L 703.390625 126.148438 C 703.390625 135.128906 696.125 142.40625 687.164062 142.40625 C 678.203125 142.40625 670.941406 135.128906 670.941406 126.148438 " fill-opacity="1" fill-rule="nonzero"/></g><g fill="#ffffff" fill-opacity="1"><g transform="translate(16.48204, 117.498876)"><g><path d="M 50.875 -70.734375 C 61.488281 -70.734375 69.484375 -68.695312 74.859375 -64.625 C 80.242188 -60.550781 82.9375 -54.585938 82.9375 -46.734375 C 82.9375 -42.835938 82.234375 -38.335938 80.828125 -33.234375 C 78.484375 -25.023438 75.328125 -18.515625 71.359375 -13.703125 C 67.398438 -8.890625 62.179688 -5.382812 55.703125 -3.1875 C 49.222656 -0.988281 40.921875 0.0703125 30.796875 0 L 1.90625 -0.109375 C 0.425781 -0.109375 -0.71875 -0.351562 -1.53125 -0.84375 C -2.351562 -1.34375 -2.765625 -2.019531 -2.765625 -2.875 C -2.765625 -3.289062 -2.65625 -3.75 -2.4375 -4.25 C -2.226562 -4.882812 -1.925781 -5.34375 -1.53125 -5.625 C -1.144531 -5.90625 -0.5625 -6.296875 0.21875 -6.796875 C 1.34375 -7.429688 2.238281 -8.140625 2.90625 -8.921875 C 3.582031 -9.703125 4.171875 -10.941406 4.671875 -12.640625 L 17.625 -58.3125 C 17.90625 -59.226562 18.046875 -60.109375 18.046875 -60.953125 C 18.046875 -61.734375 17.921875 -62.390625 17.671875 -62.921875 C 17.429688 -63.453125 17.097656 -64.070312 16.671875 -64.78125 C 16.035156 -65.707031 15.71875 -66.453125 15.71875 -67.015625 C 15.71875 -67.222656 15.789062 -67.613281 15.9375 -68.1875 C 16.21875 -69.101562 16.832031 -69.753906 17.78125 -70.140625 C 18.738281 -70.535156 20.210938 -70.734375 22.203125 -70.734375 Z M 53.625 -35.578125 C 55.46875 -42.234375 56.390625 -47.472656 56.390625 -51.296875 C 56.390625 -55.046875 55.609375 -57.628906 54.046875 -59.046875 C 52.492188 -60.460938 50.265625 -61.171875 47.359375 -61.171875 L 45.03125 -61.171875 L 30.6875 -9.5625 L 33.234375 -9.5625 C 36.492188 -9.5625 39.238281 -10.25 41.46875 -11.625 C 43.695312 -13.007812 45.765625 -15.554688 47.671875 -19.265625 C 49.585938 -22.984375 51.570312 -28.421875 53.625 -35.578125 Z M 53.625 -35.578125 "/></g></g></g><g fill="#ffffff" fill-opacity="1"><g transform="translate(98.473632, 117.498876)"><g><path d="M 69.34375 -70.734375 C 71.96875 -70.734375 74.003906 -70.164062 75.453125 -69.03125 C 76.910156 -67.894531 77.640625 -66.335938 77.640625 -64.359375 C 77.640625 -63.367188 77.492188 -62.410156 77.203125 -61.484375 L 74.453125 -51.609375 C 73.953125 -49.703125 73.222656 -48.375 72.265625 -47.625 C 71.316406 -46.882812 69.957031 -46.515625 68.1875 -46.515625 C 66.488281 -46.515625 65.160156 -46.882812 64.203125 -47.625 C 63.242188 -48.375 62.515625 -49.597656 62.015625 -51.296875 L 60.328125 -57.34375 C 59.972656 -58.625 59.546875 -59.472656 59.046875 -59.890625 C 58.554688 -60.316406 57.601562 -60.53125 56.1875 -60.53125 L 45.03125 -60.53125 L 39.71875 -41.625 L 44.390625 -41.625 C 44.890625 -41.625 45.5625 -41.976562 46.40625 -42.6875 L 50.015625 -45.875 C 51.078125 -46.800781 52 -47.472656 52.78125 -47.890625 C 53.5625 -48.316406 54.519531 -48.53125 55.65625 -48.53125 C 56.925781 -48.53125 57.96875 -48.191406 58.78125 -47.515625 C 59.59375 -46.847656 60 -45.984375 60 -44.921875 C 60 -44.640625 59.929688 -44.21875 59.796875 -43.65625 L 55.4375 -28.890625 C 55.007812 -27.328125 54.28125 -26.175781 53.25 -25.4375 C 52.226562 -24.695312 51.117188 -24.328125 49.921875 -24.328125 C 47.929688 -24.328125 46.441406 -25.351562 45.453125 -27.40625 L 43.65625 -31.125 C 43.15625 -32.175781 42.375 -32.703125 41.3125 -32.703125 L 37.171875 -32.703125 L 30.90625 -10.203125 L 40.25 -10.203125 C 41.59375 -10.203125 42.773438 -10.460938 43.796875 -10.984375 C 44.828125 -11.515625 45.945312 -12.457031 47.15625 -13.8125 L 53.53125 -20.8125 C 54.65625 -22.019531 55.734375 -22.890625 56.765625 -23.421875 C 57.796875 -23.953125 59.050781 -24.21875 60.53125 -24.21875 C 62.09375 -24.21875 63.367188 -23.863281 64.359375 -23.15625 C 65.347656 -22.445312 65.84375 -21.382812 65.84375 -19.96875 C 65.84375 -19.394531 65.738281 -18.722656 65.53125 -17.953125 L 62.453125 -7.21875 C 61.671875 -4.53125 60.535156 -2.65625 59.046875 -1.59375 C 57.554688 -0.53125 55.398438 0 52.578125 0 L 1.90625 0 C 0.425781 0 -0.71875 -0.242188 -1.53125 -0.734375 C -2.351562 -1.234375 -2.765625 -1.910156 -2.765625 -2.765625 C -2.765625 -3.191406 -2.65625 -3.648438 -2.4375 -4.140625 C -2.15625 -4.921875 -1.695312 -5.519531 -1.0625 -5.9375 C -0.425781 -6.363281 -0.0351562 -6.613281 0.109375 -6.6875 C 1.242188 -7.394531 2.160156 -8.117188 2.859375 -8.859375 C 3.566406 -9.609375 4.171875 -10.832031 4.671875 -12.53125 L 17.734375 -58.3125 C 18.015625 -59.226562 18.15625 -60.078125 18.15625 -60.859375 C 18.15625 -61.703125 18.03125 -62.40625 17.78125 -62.96875 C 17.539062 -63.539062 17.171875 -64.144531 16.671875 -64.78125 C 16.035156 -65.707031 15.71875 -66.453125 15.71875 -67.015625 C 15.71875 -67.222656 15.789062 -67.613281 15.9375 -68.1875 C 16.21875 -69.101562 16.851562 -69.753906 17.84375 -70.140625 C 18.832031 -70.535156 20.285156 -70.734375 22.203125 -70.734375 Z M 69.34375 -70.734375 "/></g></g></g><g fill="#ffffff" fill-opacity="1"><g transform="translate(169.738347, 117.498876)"><g><path d="M 39.71875 -71.375 C 43.6875 -71.375 47.347656 -70.894531 50.703125 -69.9375 C 54.066406 -68.976562 57.484375 -67.472656 60.953125 -65.421875 L 63.40625 -67.4375 C 65.101562 -68.78125 66.5 -69.695312 67.59375 -70.1875 C 68.695312 -70.6875 69.957031 -70.9375 71.375 -70.9375 C 73.070312 -70.9375 74.414062 -70.566406 75.40625 -69.828125 C 76.394531 -69.085938 76.890625 -68.007812 76.890625 -66.59375 C 76.890625 -66.019531 76.785156 -65.414062 76.578125 -64.78125 L 72.109375 -50.125 C 71.617188 -48.425781 71 -47.222656 70.25 -46.515625 C 69.507812 -45.804688 68.394531 -45.453125 66.90625 -45.453125 C 65.351562 -45.453125 63.988281 -45.929688 62.8125 -46.890625 C 61.644531 -47.847656 59.820312 -49.8125 57.34375 -52.78125 C 54.863281 -55.613281 52.613281 -57.613281 50.59375 -58.78125 C 48.582031 -59.945312 46.515625 -60.53125 44.390625 -60.53125 C 42.835938 -60.53125 41.53125 -60.015625 40.46875 -58.984375 C 39.40625 -57.960938 38.875 -56.707031 38.875 -55.21875 C 38.875 -53.519531 39.722656 -51.945312 41.421875 -50.5 C 43.117188 -49.050781 45.773438 -47.226562 49.390625 -45.03125 C 53.066406 -42.832031 56.109375 -40.847656 58.515625 -39.078125 C 60.921875 -37.304688 62.972656 -35.109375 64.671875 -32.484375 C 66.367188 -29.867188 67.21875 -26.863281 67.21875 -23.46875 C 67.21875 -21.269531 66.867188 -19.078125 66.171875 -16.890625 C 64.460938 -11.222656 61.164062 -6.921875 56.28125 -3.984375 C 51.394531 -1.046875 45.695312 0.421875 39.1875 0.421875 C 34.300781 0.421875 30.191406 -0.140625 26.859375 -1.265625 C 23.535156 -2.398438 20.140625 -4.316406 16.671875 -7.015625 L 12.84375 -3.828125 C 11.082031 -2.335938 9.632812 -1.328125 8.5 -0.796875 C 7.363281 -0.265625 6.085938 0 4.671875 0 C 3.046875 0 1.753906 -0.390625 0.796875 -1.171875 C -0.160156 -1.953125 -0.640625 -3.015625 -0.640625 -4.359375 C -0.640625 -5.066406 -0.5 -5.804688 -0.21875 -6.578125 L 4.984375 -22.40625 C 5.554688 -24.25 6.335938 -25.554688 7.328125 -26.328125 C 8.316406 -27.109375 9.59375 -27.5 11.15625 -27.5 C 12.78125 -27.5 14.25 -26.929688 15.5625 -25.796875 C 16.875 -24.671875 18.585938 -22.617188 20.703125 -19.640625 C 22.972656 -16.390625 25.082031 -14.125 27.03125 -12.84375 C 28.976562 -11.570312 31.296875 -10.9375 33.984375 -10.9375 C 35.898438 -10.9375 37.367188 -11.238281 38.390625 -11.84375 C 39.421875 -12.445312 40.144531 -13.421875 40.5625 -14.765625 C 40.707031 -15.117188 40.78125 -15.648438 40.78125 -16.359375 C 40.78125 -18.054688 39.960938 -19.613281 38.328125 -21.03125 C 36.703125 -22.445312 34.191406 -24.144531 30.796875 -26.125 C 27.179688 -28.320312 24.238281 -30.285156 21.96875 -32.015625 C 19.707031 -33.753906 17.742188 -35.929688 16.078125 -38.546875 C 14.421875 -41.171875 13.59375 -44.253906 13.59375 -47.796875 C 13.59375 -50.273438 13.984375 -52.71875 14.765625 -55.125 C 16.253906 -60.007812 19.296875 -63.9375 23.890625 -66.90625 C 28.492188 -69.882812 33.769531 -71.375 39.71875 -71.375 Z M 39.71875 -71.375 "/></g></g></g><g fill="#ffffff" fill-opacity="1"><g transform="translate(242.91478, 117.498876)"><g><path d="M 64.890625 -12.53125 C 64.609375 -11.613281 64.46875 -10.691406 64.46875 -9.765625 C 64.46875 -8.992188 64.570312 -8.34375 64.78125 -7.8125 C 65 -7.28125 65.226562 -6.851562 65.46875 -6.53125 C 65.71875 -6.207031 65.878906 -5.976562 65.953125 -5.84375 C 66.660156 -5.132812 67.015625 -4.425781 67.015625 -3.71875 C 67.015625 -3.570312 66.941406 -3.21875 66.796875 -2.65625 C 66.515625 -1.664062 65.894531 -0.972656 64.9375 -0.578125 C 63.988281 -0.191406 62.519531 0 60.53125 0 L 35.359375 0 C 33.878906 0 32.726562 -0.242188 31.90625 -0.734375 C 31.09375 -1.234375 30.6875 -1.910156 30.6875 -2.765625 C 30.6875 -3.191406 30.796875 -3.648438 31.015625 -4.140625 C 31.222656 -4.703125 31.519531 -5.144531 31.90625 -5.46875 C 32.300781 -5.789062 32.851562 -6.160156 33.5625 -6.578125 C 34.695312 -7.222656 35.617188 -7.929688 36.328125 -8.703125 C 37.035156 -9.484375 37.632812 -10.757812 38.125 -12.53125 L 40.890625 -21.671875 L 24.328125 -21.671875 L 21.453125 -15.609375 C 20.242188 -12.992188 19.640625 -10.941406 19.640625 -9.453125 C 19.640625 -8.597656 19.78125 -7.90625 20.0625 -7.375 C 20.351562 -6.84375 20.78125 -6.296875 21.34375 -5.734375 C 21.84375 -5.171875 22.179688 -4.691406 22.359375 -4.296875 C 22.535156 -3.910156 22.550781 -3.398438 22.40625 -2.765625 C 22.125 -1.703125 21.539062 -0.972656 20.65625 -0.578125 C 19.769531 -0.191406 18.375 0 16.46875 0 L 0.640625 0 C -0.992188 0 -2.234375 -0.300781 -3.078125 -0.90625 C -3.929688 -1.507812 -4.359375 -2.304688 -4.359375 -3.296875 C -4.359375 -4.421875 -3.945312 -5.320312 -3.125 -6 C -2.3125 -6.675781 -1.09375 -7.398438 0.53125 -8.171875 C 2.65625 -9.234375 4.351562 -10.273438 5.625 -11.296875 C 6.90625 -12.328125 8.003906 -13.765625 8.921875 -15.609375 L 27.828125 -54.796875 C 30.722656 -60.890625 34.132812 -65.296875 38.0625 -68.015625 C 42 -70.742188 47.1875 -72.109375 53.625 -72.109375 C 60.851562 -72.109375 66.445312 -70.640625 70.40625 -67.703125 C 74.375 -64.765625 76.359375 -60.675781 76.359375 -55.4375 C 76.359375 -53.238281 76.003906 -50.972656 75.296875 -48.640625 Z M 44.078125 -32.28125 L 49.703125 -50.984375 C 49.984375 -51.828125 50.125 -52.707031 50.125 -53.625 C 50.125 -54.976562 49.75 -55.988281 49 -56.65625 C 48.257812 -57.332031 47.21875 -57.671875 45.875 -57.671875 C 44.175781 -57.671875 42.722656 -57.171875 41.515625 -56.171875 C 40.316406 -55.179688 39.117188 -53.414062 37.921875 -50.875 L 29.203125 -32.28125 Z M 44.078125 -32.28125 "/></g></g></g><g fill="#ffffff" fill-opacity="1"><g transform="translate(317.047065, 117.498876)"><g><path d="M 60.859375 -27.40625 C 62.835938 -27.40625 64.335938 -26.992188 65.359375 -26.171875 C 66.390625 -25.359375 66.90625 -24.210938 66.90625 -22.734375 C 66.90625 -22.085938 66.800781 -21.378906 66.59375 -20.609375 L 63.078125 -8.171875 C 62.160156 -5.128906 60.867188 -3.003906 59.203125 -1.796875 C 57.546875 -0.597656 55.085938 0 51.828125 0 L 1.90625 0 C 0.425781 0 -0.71875 -0.242188 -1.53125 -0.734375 C -2.351562 -1.234375 -2.765625 -1.910156 -2.765625 -2.765625 C -2.765625 -3.191406 -2.65625 -3.648438 -2.4375 -4.140625 C -2.226562 -4.703125 -1.875 -5.175781 -1.375 -5.5625 C -0.882812 -5.957031 -0.351562 -6.332031 0.21875 -6.6875 C 1.34375 -7.394531 2.257812 -8.117188 2.96875 -8.859375 C 3.675781 -9.609375 4.28125 -10.832031 4.78125 -12.53125 L 17.734375 -58.3125 C 18.015625 -59.226562 18.15625 -60.109375 18.15625 -60.953125 C 18.15625 -61.734375 18.03125 -62.390625 17.78125 -62.921875 C 17.539062 -63.453125 17.207031 -64.070312 16.78125 -64.78125 C 16.144531 -65.707031 15.828125 -66.453125 15.828125 -67.015625 C 15.828125 -67.222656 15.894531 -67.613281 16.03125 -68.1875 C 16.320312 -69.101562 16.941406 -69.753906 17.890625 -70.140625 C 18.847656 -70.535156 20.316406 -70.734375 22.296875 -70.734375 L 47.265625 -70.734375 C 48.742188 -70.734375 49.890625 -70.5 50.703125 -70.03125 C 51.523438 -69.570312 51.9375 -68.921875 51.9375 -68.078125 C 51.9375 -67.722656 51.828125 -67.265625 51.609375 -66.703125 C 51.398438 -66.203125 51.097656 -65.753906 50.703125 -65.359375 C 50.316406 -64.972656 49.960938 -64.691406 49.640625 -64.515625 C 49.328125 -64.335938 49.097656 -64.179688 48.953125 -64.046875 C 47.828125 -63.398438 46.910156 -62.6875 46.203125 -61.90625 C 45.492188 -61.132812 44.890625 -59.9375 44.390625 -58.3125 L 30.6875 -10.203125 L 37.28125 -10.203125 C 38.90625 -10.203125 40.300781 -10.484375 41.46875 -11.046875 C 42.632812 -11.609375 43.859375 -12.671875 45.140625 -14.234375 L 52.46875 -22.9375 C 53.8125 -24.5 55.101562 -25.632812 56.34375 -26.34375 C 57.582031 -27.050781 59.085938 -27.40625 60.859375 -27.40625 Z M 60.859375 -27.40625 "/></g></g></g><g fill="#ffffff" fill-opacity="1"><g transform="translate(386.187626, 117.498876)"><g><path d="M 69.34375 -70.734375 C 71.96875 -70.734375 74.003906 -70.164062 75.453125 -69.03125 C 76.910156 -67.894531 77.640625 -66.335938 77.640625 -64.359375 C 77.640625 -63.367188 77.492188 -62.410156 77.203125 -61.484375 L 74.453125 -51.609375 C 73.953125 -49.703125 73.222656 -48.375 72.265625 -47.625 C 71.316406 -46.882812 69.957031 -46.515625 68.1875 -46.515625 C 66.488281 -46.515625 65.160156 -46.882812 64.203125 -47.625 C 63.242188 -48.375 62.515625 -49.597656 62.015625 -51.296875 L 60.328125 -57.34375 C 59.972656 -58.625 59.546875 -59.472656 59.046875 -59.890625 C 58.554688 -60.316406 57.601562 -60.53125 56.1875 -60.53125 L 45.03125 -60.53125 L 39.71875 -41.625 L 44.390625 -41.625 C 44.890625 -41.625 45.5625 -41.976562 46.40625 -42.6875 L 50.015625 -45.875 C 51.078125 -46.800781 52 -47.472656 52.78125 -47.890625 C 53.5625 -48.316406 54.519531 -48.53125 55.65625 -48.53125 C 56.925781 -48.53125 57.96875 -48.191406 58.78125 -47.515625 C 59.59375 -46.847656 60 -45.984375 60 -44.921875 C 60 -44.640625 59.929688 -44.21875 59.796875 -43.65625 L 55.4375 -28.890625 C 55.007812 -27.328125 54.28125 -26.175781 53.25 -25.4375 C 52.226562 -24.695312 51.117188 -24.328125 49.921875 -24.328125 C 47.929688 -24.328125 46.441406 -25.351562 45.453125 -27.40625 L 43.65625 -31.125 C 43.15625 -32.175781 42.375 -32.703125 41.3125 -32.703125 L 37.171875 -32.703125 L 30.90625 -10.203125 L 40.25 -10.203125 C 41.59375 -10.203125 42.773438 -10.460938 43.796875 -10.984375 C 44.828125 -11.515625 45.945312 -12.457031 47.15625 -13.8125 L 53.53125 -20.8125 C 54.65625 -22.019531 55.734375 -22.890625 56.765625 -23.421875 C 57.796875 -23.953125 59.050781 -24.21875 60.53125 -24.21875 C 62.09375 -24.21875 63.367188 -23.863281 64.359375 -23.15625 C 65.347656 -22.445312 65.84375 -21.382812 65.84375 -19.96875 C 65.84375 -19.394531 65.738281 -18.722656 65.53125 -17.953125 L 62.453125 -7.21875 C 61.671875 -4.53125 60.535156 -2.65625 59.046875 -1.59375 C 57.554688 -0.53125 55.398438 0 52.578125 0 L 1.90625 0 C 0.425781 0 -0.71875 -0.242188 -1.53125 -0.734375 C -2.351562 -1.234375 -2.765625 -1.910156 -2.765625 -2.765625 C -2.765625 -3.191406 -2.65625 -3.648438 -2.4375 -4.140625 C -2.15625 -4.921875 -1.695312 -5.519531 -1.0625 -5.9375 C -0.425781 -6.363281 -0.0351562 -6.613281 0.109375 -6.6875 C 1.242188 -7.394531 2.160156 -8.117188 2.859375 -8.859375 C 3.566406 -9.609375 4.171875 -10.832031 4.671875 -12.53125 L 17.734375 -58.3125 C 18.015625 -59.226562 18.15625 -60.078125 18.15625 -60.859375 C 18.15625 -61.703125 18.03125 -62.40625 17.78125 -62.96875 C 17.539062 -63.539062 17.171875 -64.144531 16.671875 -64.78125 C 16.035156 -65.707031 15.71875 -66.453125 15.71875 -67.015625 C 15.71875 -67.222656 15.789062 -67.613281 15.9375 -68.1875 C 16.21875 -69.101562 16.851562 -69.753906 17.84375 -70.140625 C 18.832031 -70.535156 20.285156 -70.734375 22.203125 -70.734375 Z M 69.34375 -70.734375 "/></g></g></g><g fill="#ffffff" fill-opacity="1"><g transform="translate(457.452341, 117.498876)"><g><path d="M 81.140625 -49.171875 C 80.003906 -45.066406 77.878906 -41.863281 74.765625 -39.5625 C 71.648438 -37.257812 67.722656 -35.828125 62.984375 -35.265625 C 66.378906 -34.972656 68.925781 -33.976562 70.625 -32.28125 C 72.320312 -30.582031 73.171875 -28.351562 73.171875 -25.59375 C 73.171875 -24.53125 72.992188 -23.222656 72.640625 -21.671875 L 71.46875 -16.46875 C 71.332031 -15.757812 71.265625 -15.257812 71.265625 -14.96875 C 71.265625 -14.050781 71.472656 -13.363281 71.890625 -12.90625 C 72.316406 -12.445312 72.921875 -12.21875 73.703125 -12.21875 C 75.191406 -12.21875 76.269531 -12.003906 76.9375 -11.578125 C 77.613281 -11.148438 77.847656 -10.367188 77.640625 -9.234375 C 77.347656 -7.609375 76.492188 -6.015625 75.078125 -4.453125 C 73.671875 -2.898438 71.671875 -1.609375 69.078125 -0.578125 C 66.492188 0.441406 63.363281 0.953125 59.6875 0.953125 C 55.007812 0.953125 51.289062 -0.0859375 48.53125 -2.171875 C 45.769531 -4.265625 44.390625 -7.257812 44.390625 -11.15625 C 44.390625 -12.632812 44.601562 -14.226562 45.03125 -15.9375 L 46.734375 -22.734375 C 47.015625 -23.648438 47.15625 -24.601562 47.15625 -25.59375 C 47.15625 -27.21875 46.601562 -28.382812 45.5 -29.09375 C 44.40625 -29.800781 42.65625 -30.15625 40.25 -30.15625 L 36.21875 -30.15625 L 31.328125 -12.53125 C 31.191406 -12.101562 31.125 -11.570312 31.125 -10.9375 C 31.125 -9.945312 31.367188 -9.097656 31.859375 -8.390625 C 32.359375 -7.679688 33.03125 -6.9375 33.875 -6.15625 C 34.507812 -5.664062 35.003906 -5.1875 35.359375 -4.71875 C 35.710938 -4.257812 35.890625 -3.785156 35.890625 -3.296875 C 35.890625 -2.085938 35.320312 -1.234375 34.1875 -0.734375 C 33.0625 -0.242188 31.398438 0 29.203125 0 L 2.546875 0 C 0.703125 0 -0.675781 -0.332031 -1.59375 -1 C -2.507812 -1.675781 -2.828125 -2.617188 -2.546875 -3.828125 C -2.410156 -4.460938 -2.144531 -4.972656 -1.75 -5.359375 C -1.363281 -5.753906 -0.78125 -6.195312 0 -6.6875 C 1.207031 -7.394531 2.160156 -8.140625 2.859375 -8.921875 C 3.566406 -9.703125 4.132812 -10.90625 4.5625 -12.53125 L 17.53125 -58.3125 C 17.8125 -59.226562 17.953125 -60.109375 17.953125 -60.953125 C 17.953125 -61.734375 17.828125 -62.390625 17.578125 -62.921875 C 17.328125 -63.453125 16.988281 -64.070312 16.5625 -64.78125 C 15.925781 -65.707031 15.609375 -66.453125 15.609375 -67.015625 C 15.609375 -67.222656 15.679688 -67.613281 15.828125 -68.1875 C 16.109375 -69.101562 16.722656 -69.753906 17.671875 -70.140625 C 18.628906 -70.535156 20.101562 -70.734375 22.09375 -70.734375 L 57.671875 -70.734375 C 62.554688 -70.734375 66.820312 -69.988281 70.46875 -68.5 C 74.113281 -67.007812 76.910156 -64.972656 78.859375 -62.390625 C 80.804688 -59.804688 81.78125 -56.882812 81.78125 -53.625 C 81.78125 -52.144531 81.566406 -50.660156 81.140625 -49.171875 Z M 53.953125 -50.234375 C 54.304688 -51.859375 54.484375 -53.097656 54.484375 -53.953125 C 54.484375 -57.703125 52.429688 -59.578125 48.328125 -59.578125 L 43.859375 -59.578125 L 39.1875 -40.78125 L 43.65625 -40.78125 C 46.414062 -40.78125 48.59375 -41.453125 50.1875 -42.796875 C 51.78125 -44.140625 53.035156 -46.617188 53.953125 -50.234375 Z M 53.953125 -50.234375 "/></g></g></g><g fill="#ffffff" fill-opacity="1"><g transform="translate(538.063239, 117.498876)"><g><path d="M 85.0625 -70.734375 C 88.957031 -70.734375 90.90625 -69.140625 90.90625 -65.953125 C 90.90625 -64.960938 90.691406 -63.722656 90.265625 -62.234375 L 87.71875 -53.625 C 86.945312 -51.007812 85.992188 -49.171875 84.859375 -48.109375 C 83.722656 -47.046875 82.09375 -46.515625 79.96875 -46.515625 C 78.195312 -46.515625 76.832031 -46.972656 75.875 -47.890625 C 74.925781 -48.816406 74.023438 -50.269531 73.171875 -52.25 L 71.375 -56.609375 C 70.800781 -57.953125 70.195312 -58.867188 69.5625 -59.359375 C 68.925781 -59.859375 67.9375 -60.109375 66.59375 -60.109375 L 64.140625 -60.109375 L 50.65625 -12.640625 C 50.445312 -11.710938 50.34375 -10.898438 50.34375 -10.203125 C 50.34375 -9.347656 50.460938 -8.632812 50.703125 -8.0625 C 50.953125 -7.5 51.328125 -6.898438 51.828125 -6.265625 C 52.460938 -5.273438 52.78125 -4.460938 52.78125 -3.828125 C 52.78125 -3.679688 52.710938 -3.328125 52.578125 -2.765625 C 52.222656 -1.835938 51.53125 -1.160156 50.5 -0.734375 C 49.46875 -0.316406 48 -0.109375 46.09375 -0.109375 L 21.140625 -0.109375 C 19.648438 -0.109375 18.5 -0.351562 17.6875 -0.84375 C 16.875 -1.34375 16.46875 -2.050781 16.46875 -2.96875 C 16.46875 -3.394531 16.570312 -3.820312 16.78125 -4.25 C 17.0625 -4.882812 17.394531 -5.359375 17.78125 -5.671875 C 18.175781 -5.992188 18.765625 -6.40625 19.546875 -6.90625 C 20.609375 -7.539062 21.492188 -8.25 22.203125 -9.03125 C 22.910156 -9.8125 23.507812 -11.015625 24 -12.640625 L 37.390625 -60.109375 L 34.9375 -60.109375 C 33.382812 -60.109375 32.109375 -59.859375 31.109375 -59.359375 C 30.117188 -58.867188 29.0625 -57.953125 27.9375 -56.609375 L 24.421875 -52.25 C 22.796875 -50.34375 21.222656 -48.910156 19.703125 -47.953125 C 18.179688 -46.992188 16.535156 -46.515625 14.765625 -46.515625 C 13.128906 -46.515625 11.851562 -46.9375 10.9375 -47.78125 C 10.019531 -48.632812 9.5625 -49.804688 9.5625 -51.296875 C 9.5625 -52.003906 9.664062 -52.78125 9.875 -53.625 L 12.640625 -63.296875 C 13.203125 -65.273438 13.835938 -66.773438 14.546875 -67.796875 C 15.253906 -68.828125 16.265625 -69.570312 17.578125 -70.03125 C 18.890625 -70.5 20.75 -70.734375 23.15625 -70.734375 Z M 85.0625 -70.734375 "/></g></g></g><g clip-path="url(#id5)"><path fill="#d2e8eb" d="M 645.816406 60.445312 L 666.472656 60.445312 C 666.472656 80.382812 657.835938 92.371094 651.121094 92.941406 C 650.695312 92.957031 650.269531 92.960938 649.84375 92.960938 L 645.816406 92.960938 C 641.332031 92.960938 637.277344 91.144531 634.339844 88.199219 C 631.40625 85.257812 629.589844 81.195312 629.589844 76.703125 C 629.589844 67.722656 636.851562 60.445312 645.816406 60.445312 " fill-opacity="1" fill-rule="nonzero"/></g><g clip-path="url(#id6)"><path fill="#ffffff" d="M 698.925781 39.746094 L 698.925781 49.070312 C 698.925781 56.355469 696.039062 63.339844 690.898438 68.488281 L 678.230469 81.179688 C 671.003906 88.421875 661.304688 92.617188 651.121094 92.941406 C 657.835938 92.371094 666.472656 80.382812 666.472656 60.445312 L 666.472656 39.746094 C 666.472656 30.765625 673.738281 23.488281 682.699219 23.488281 C 691.660156 23.488281 698.925781 30.765625 698.925781 39.746094 " fill-opacity="1" fill-rule="nonzero"/></g><g clip-path="url(#id7)"><path fill="#d2e8eb" d="M 719.582031 98.625 L 698.925781 98.625 C 698.925781 78.6875 707.558594 66.703125 714.277344 66.132812 C 714.703125 66.117188 715.125 66.109375 715.554688 66.109375 L 719.582031 66.109375 C 724.0625 66.109375 728.121094 67.929688 731.054688 70.871094 C 733.992188 73.8125 735.808594 77.878906 735.808594 82.367188 C 735.808594 91.347656 728.542969 98.625 719.582031 98.625 " fill-opacity="1" fill-rule="nonzero"/></g><g clip-path="url(#id8)"><path fill="#ffffff" d="M 666.472656 119.324219 L 666.472656 110.003906 C 666.472656 102.71875 669.359375 95.734375 674.5 90.582031 L 687.167969 77.890625 C 694.394531 70.648438 704.089844 66.453125 714.277344 66.132812 C 707.558594 66.703125 698.925781 78.6875 698.925781 98.625 L 698.925781 119.324219 C 698.925781 128.304688 691.660156 135.582031 682.699219 135.582031 C 673.738281 135.582031 666.472656 128.304688 666.472656 119.324219 " fill-opacity="1" fill-rule="nonzero"/></g></svg>