<svg xmlns="http://www.w3.org/2000/svg" xmlns:xlink="http://www.w3.org/1999/xlink" width="1000" zoomAndPan="magnify" viewBox="0 0 750 187.499995" height="250" preserveAspectRatio="xMidYMid meet" version="1.0"><defs><g/><clipPath id="id1"><path d="M 597.550781 67 L 648 67 L 648 112 L 597.550781 112 Z M 597.550781 67 " clip-rule="nonzero"/></clipPath><clipPath id="id2"><path d="M 626 17.074219 L 693 17.074219 L 693 112 L 626 112 Z M 626 17.074219 " clip-rule="nonzero"/></clipPath><clipPath id="id3"><path d="M 692 75 L 742.664062 75 L 742.664062 120 L 692 120 Z M 692 75 " clip-rule="nonzero"/></clipPath><clipPath id="id4"><path d="M 647 75 L 714 75 L 714 169.667969 L 647 169.667969 Z M 647 75 " clip-rule="nonzero"/></clipPath></defs><g fill="rgb(100%, 100%, 100%)" fill-opacity="1"><g transform="translate(-0.775084, 150.270777)"><g><path d="M 37.757812 0.355469 L 39.003906 0.179688 L 39.894531 0.179688 L 41.140625 0 L 46.660156 0 L 48.621094 -0.710938 L 51.46875 -1.070312 L 53.25 -1.425781 L 55.746094 -2.136719 L 57.527344 -3.382812 L 59.484375 -3.917969 L 61.800781 -4.988281 L 62.867188 -5.699219 L 64.472656 -7.125 L 66.964844 -9.082031 L 69.457031 -12.109375 L 70.703125 -14.246094 L 71.59375 -15.316406 L 72.484375 -16.5625 L 72.664062 -17.632812 L 74.089844 -19.054688 L 74.980469 -20.835938 L 76.226562 -24.398438 L 77.472656 -26.894531 L 78.183594 -29.386719 L 78.363281 -30.453125 L 79.433594 -32.769531 L 79.609375 -34.730469 L 79.964844 -35.796875 L 81.210938 -38.113281 L 81.746094 -39.359375 L 82.101562 -41.496094 L 82.28125 -43.8125 L 83.351562 -47.550781 L 83.527344 -49.332031 L 84.0625 -50.757812 L 84.417969 -52.183594 L 84.773438 -56.277344 L 85.128906 -58.949219 L 85.84375 -62.335938 L 85.84375 -63.582031 L 86.734375 -66.429688 L 86.734375 -71.417969 L 86.910156 -72.664062 L 87.269531 -75.691406 L 87.269531 -76.9375 L 87.800781 -79.789062 L 87.800781 -80.855469 L 87.980469 -82.101562 L 87.625 -83.351562 L 87.800781 -84.597656 L 87.625 -85.664062 L 87.089844 -88.160156 L 87.625 -89.226562 L 87.445312 -91.542969 L 87.089844 -95.105469 L 87.269531 -96.351562 L 86.378906 -98.84375 L 86.378906 -100.089844 L 85.84375 -103.117188 L 85.128906 -104.367188 L 84.0625 -107.035156 L 83.351562 -109.53125 L 82.460938 -111.132812 L 81.746094 -112.023438 L 80.320312 -114.160156 L 77.652344 -117.722656 L 76.582031 -118.613281 L 75.335938 -119.503906 L 73.554688 -120.574219 L 72.84375 -120.929688 L 71.953125 -121.460938 L 68.925781 -122.351562 L 67.855469 -122.710938 L 67.5 -122.710938 L 65.003906 -123.421875 L 63.582031 -123.957031 L 62.335938 -123.957031 L 59.664062 -124.3125 L 58.058594 -124.492188 L 56.636719 -124.667969 L 53.785156 -124.667969 L 52.71875 -124.492188 L 50.757812 -124.667969 L 46.304688 -124.667969 L 42.742188 -124.492188 L 38.824219 -124.667969 L 37.402344 -124.667969 L 34.550781 -124.3125 L 33.304688 -124.492188 L 31.167969 -124.667969 L 29.921875 -124.667969 L 28.140625 -124.132812 L 27.605469 -122.175781 L 27.25 -121.640625 L 26.714844 -119.859375 L 26.359375 -118.613281 L 26.179688 -116.476562 L 26.003906 -115.230469 L 25.46875 -114.160156 L 25.113281 -112.023438 L 24.753906 -109.53125 L 24.222656 -107.214844 L 24.042969 -105.96875 L 24.042969 -104.898438 L 23.6875 -103.652344 L 22.796875 -100.445312 L 22.441406 -98.308594 L 22.085938 -94.570312 L 21.90625 -93.144531 L 21.90625 -90.652344 L 21.195312 -88.515625 L 20.835938 -86.378906 L 20.835938 -85.308594 L 20.304688 -83.171875 L 20.125 -81.925781 L 19.769531 -79.789062 L 19.589844 -78.542969 L 19.589844 -77.472656 L 19.414062 -76.226562 L 19.054688 -74.980469 L 18.523438 -73.734375 L 17.632812 -68.746094 L 17.277344 -67.675781 L 16.742188 -65.183594 L 16.386719 -64.117188 L 16.027344 -62.867188 L 16.027344 -59.304688 L 15.316406 -57.167969 L 15.136719 -56.101562 L 14.605469 -53.964844 L 14.246094 -52.71875 L 13.890625 -50.402344 L 13.714844 -49.15625 L 13.179688 -46.660156 L 13 -45.238281 L 12.46875 -42.742188 L 12.46875 -38.824219 L 11.753906 -37.578125 L 11.578125 -36.511719 L 11.398438 -34.195312 L 11.042969 -32.769531 L 10.507812 -30.277344 L 10.507812 -28.851562 L 10.152344 -27.070312 L 9.4375 -25.644531 L 9.082031 -23.6875 L 8.90625 -22.261719 L 8.546875 -19.769531 L 8.546875 -18.34375 L 8.191406 -16.917969 L 7.835938 -15.136719 L 7.300781 -12.644531 L 7.125 -11.578125 L 6.769531 -9.082031 L 5.878906 -6.945312 L 5.699219 -5.34375 L 5.699219 -1.246094 L 7.125 -0.890625 L 9.617188 -0.535156 L 14.960938 -0.535156 L 16.207031 -0.710938 L 17.632812 -0.710938 L 18.699219 -0.535156 L 21.195312 -0.179688 L 22.796875 -0.179688 L 24.222656 0 L 26.359375 -0.179688 L 29.03125 0.179688 L 31.34375 0 L 33.660156 0.179688 Z M 37.042969 -23.863281 L 34.550781 -24.578125 L 34.90625 -26.179688 L 35.441406 -29.207031 L 35.621094 -31.878906 L 35.976562 -34.550781 L 36.6875 -37.042969 L 36.867188 -38.292969 L 37.578125 -41.496094 L 38.113281 -44.167969 L 38.113281 -45.238281 L 39.003906 -47.730469 L 39.179688 -48.796875 L 39.179688 -51.113281 L 39.894531 -55.746094 L 40.25 -56.992188 L 40.070312 -58.058594 L 40.429688 -59.304688 L 40.960938 -61.800781 L 40.960938 -62.867188 L 41.496094 -65.363281 L 41.851562 -66.429688 L 42.386719 -68.925781 L 42.386719 -70.171875 L 42.742188 -73.019531 L 43.277344 -75.511719 L 43.277344 -76.582031 L 43.8125 -77.652344 L 43.988281 -79.074219 L 43.988281 -80.320312 L 44.347656 -81.570312 L 44.523438 -82.636719 L 44.878906 -86.554688 L 45.238281 -89.050781 L 45.59375 -91.363281 L 46.304688 -93.859375 L 46.839844 -96.527344 L 47.195312 -97.777344 L 47.195312 -98.84375 L 47.730469 -100.089844 L 48.265625 -101.515625 L 49.867188 -101.695312 L 52.183594 -101.515625 L 55.03125 -101.160156 L 58.058594 -100.269531 L 58.949219 -99.558594 L 60.019531 -98.667969 L 61.265625 -96.351562 L 62.335938 -93.324219 L 62.511719 -91.898438 L 62.867188 -87.089844 L 62.691406 -81.925781 L 62.867188 -78.183594 L 62.511719 -74.445312 L 62.335938 -73.375 L 61.800781 -69.636719 L 61.800781 -67.144531 L 60.910156 -64.648438 L 60.554688 -63.226562 L 60.375 -61.976562 L 60.019531 -59.304688 L 59.664062 -56.8125 L 59.304688 -54.496094 L 59.128906 -53.25 L 58.59375 -51.113281 L 58.238281 -50.046875 L 57.882812 -49.15625 L 57.703125 -48.085938 L 56.992188 -45.769531 L 56.457031 -43.277344 L 55.921875 -41.320312 L 54.855469 -37.933594 L 53.964844 -35.621094 L 53.074219 -33.839844 L 52.359375 -32.058594 L 51.648438 -30.8125 L 51.113281 -29.742188 L 49.867188 -28.316406 L 48.441406 -26.894531 L 47.550781 -26.179688 L 45.59375 -25.113281 L 44.167969 -24.398438 L 42.386719 -23.863281 Z M 37.042969 -23.863281 "/></g></g></g><g fill="rgb(100%, 100%, 100%)" fill-opacity="1"><g transform="translate(85.779313, 150.270777)"><g><path d="M 26.179688 0.179688 L 27.605469 0 L 30.453125 -0.179688 L 34.195312 -0.179688 L 35.261719 -0.355469 L 37.578125 -0.179688 L 40.429688 -0.355469 L 57.347656 -0.355469 L 57.882812 -2.316406 L 58.238281 -3.917969 L 58.417969 -6.945312 L 58.949219 -9.617188 L 59.128906 -10.863281 L 59.484375 -11.933594 L 59.839844 -13.179688 L 59.839844 -15.496094 L 60.554688 -19.414062 L 60.730469 -20.835938 L 61.085938 -22.796875 L 61.265625 -23.507812 L 61.445312 -24.933594 L 60.195312 -25.46875 L 55.210938 -25.289062 L 51.292969 -25.46875 L 48.796875 -25.644531 L 38.292969 -25.644531 L 35.796875 -26.003906 L 35.085938 -26.714844 L 35.085938 -28.140625 L 35.796875 -32.769531 L 36.332031 -35.976562 L 36.6875 -37.222656 L 36.867188 -39.003906 L 37.222656 -40.605469 L 37.757812 -42.386719 L 38.46875 -47.375 L 39.003906 -49.6875 L 39.714844 -51.648438 L 41.320312 -51.648438 L 43.632812 -51.828125 L 45.59375 -51.828125 L 48.621094 -51.648438 L 53.074219 -51.828125 L 54.675781 -51.828125 L 57.347656 -52.003906 L 59.128906 -52.003906 L 59.484375 -52.359375 L 59.839844 -54.855469 L 60.375 -57.703125 L 60.730469 -60.195312 L 61.265625 -61.621094 L 61.265625 -62.867188 L 61.800781 -65.539062 L 62.15625 -66.785156 L 62.691406 -69.28125 L 63.046875 -71.238281 L 63.046875 -72.664062 L 63.402344 -74.800781 L 62.335938 -76.226562 L 60.910156 -76.582031 L 56.277344 -76.582031 L 52.894531 -76.226562 L 46.660156 -76.402344 L 43.457031 -76.402344 L 43.8125 -79.609375 L 44.347656 -81.390625 L 44.167969 -82.816406 L 44.523438 -84.0625 L 45.058594 -86.554688 L 45.414062 -89.050781 L 45.949219 -92.433594 L 45.949219 -93.859375 L 46.484375 -94.925781 L 46.484375 -97.417969 L 46.660156 -98.667969 L 47.195312 -100.804688 L 51.46875 -100.980469 L 63.046875 -100.980469 L 65.183594 -101.160156 L 72.664062 -101.160156 L 74.445312 -101.335938 L 74.980469 -103.652344 L 75.15625 -104.722656 L 75.871094 -107.214844 L 75.871094 -108.640625 L 76.402344 -111.3125 L 76.582031 -112.378906 L 76.761719 -113.625 L 77.292969 -114.875 L 77.292969 -115.941406 L 77.652344 -120.394531 L 77.652344 -121.460938 L 78.183594 -123.421875 L 77.292969 -124.667969 L 75.691406 -124.847656 L 73.910156 -125.023438 L 72.308594 -124.847656 L 68.390625 -124.847656 L 63.226562 -124.667969 L 61.800781 -124.847656 L 57.703125 -125.023438 L 44.347656 -124.847656 L 40.429688 -124.667969 L 38.648438 -124.667969 L 37.222656 -124.847656 L 35.976562 -124.847656 L 33.839844 -124.667969 L 32.59375 -124.847656 L 31.523438 -124.667969 L 28.496094 -124.667969 L 27.070312 -123.601562 L 26.894531 -122.53125 L 26.359375 -121.460938 L 25.824219 -119.324219 L 26.179688 -118.078125 L 26.003906 -117.011719 L 25.824219 -114.695312 L 25.644531 -113.625 L 25.289062 -112.558594 L 25.113281 -110.242188 L 24.753906 -108.996094 L 24.933594 -107.925781 L 24.398438 -106.679688 L 24.398438 -105.433594 L 23.863281 -104.367188 L 23.507812 -101.871094 L 22.796875 -99.558594 L 22.617188 -98.308594 L 22.796875 -97.242188 L 22.617188 -95.996094 L 22.261719 -94.570312 L 21.550781 -93.5 L 21.371094 -89.761719 L 20.835938 -88.515625 L 20.660156 -83.527344 L 19.945312 -80.855469 L 19.414062 -78.363281 L 19.589844 -77.292969 L 19.234375 -76.046875 L 18.699219 -74.621094 L 17.632812 -69.28125 L 16.917969 -68.210938 L 16.917969 -66.964844 L 16.742188 -65.71875 L 16.5625 -64.292969 L 16.027344 -63.046875 L 15.671875 -60.375 L 14.960938 -57.882812 L 14.960938 -55.210938 L 14.246094 -51.46875 L 13.890625 -50.222656 L 13.355469 -47.550781 L 13.179688 -46.304688 L 12.644531 -45.058594 L 12.109375 -42.742188 L 12.289062 -41.675781 L 11.578125 -39.539062 L 11.578125 -38.648438 L 11.21875 -36.332031 L 10.863281 -34.90625 L 10.863281 -33.660156 L 10.507812 -30.8125 L 9.796875 -29.386719 L 9.4375 -27.070312 L 9.261719 -24.578125 L 9.082031 -23.332031 L 8.726562 -21.90625 L 8.726562 -20.660156 L 8.371094 -19.414062 L 8.371094 -17.808594 L 7.835938 -16.386719 L 7.660156 -13.535156 L 6.945312 -10.863281 L 6.589844 -8.015625 L 6.234375 -5.34375 L 5.878906 -3.738281 L 5.34375 -2.136719 L 5.878906 -0.535156 L 7.480469 -0.179688 L 16.917969 -0.179688 L 18.164062 0 L 22.796875 0 Z M 26.179688 0.179688 "/></g></g></g><g fill="rgb(100%, 100%, 100%)" fill-opacity="1"><g transform="translate(152.921299, 150.270777)"><g><path d="M 35.261719 2.316406 L 37.222656 2.136719 L 38.46875 1.960938 L 40.429688 1.960938 L 41.675781 1.78125 L 43.277344 1.960938 L 44.523438 1.78125 L 46.839844 1.070312 L 48.265625 0.890625 L 50.9375 0 L 52.003906 -0.710938 L 54.140625 -1.246094 L 55.746094 -2.492188 L 57.527344 -3.5625 L 58.949219 -4.808594 L 59.839844 -5.519531 L 61.265625 -7.125 L 62.15625 -7.835938 L 63.046875 -9.617188 L 64.117188 -10.328125 L 65.71875 -13.355469 L 66.609375 -15.851562 L 66.964844 -17.453125 L 67.320312 -18.878906 L 68.035156 -21.195312 L 68.035156 -23.863281 L 68.210938 -24.933594 L 68.746094 -27.425781 L 68.746094 -32.414062 L 68.925781 -33.660156 L 68.746094 -34.90625 L 68.925781 -35.976562 L 69.101562 -38.46875 L 68.746094 -39.539062 L 67.855469 -42.566406 L 67.675781 -43.8125 L 67.5 -45.238281 L 67.320312 -46.484375 L 66.253906 -50.222656 L 65.183594 -52.539062 L 63.757812 -56.101562 L 63.582031 -56.992188 L 61.976562 -58.949219 L 60.730469 -61.976562 L 58.59375 -64.117188 L 57.703125 -65.71875 L 56.101562 -67.5 L 55.566406 -68.390625 L 54.675781 -68.925781 L 54.140625 -69.992188 L 52.359375 -71.417969 L 51.292969 -72.128906 L 50.578125 -73.019531 L 49.867188 -74.445312 L 48.976562 -75.335938 L 48.265625 -76.402344 L 45.949219 -79.253906 L 43.988281 -81.746094 L 42.742188 -84.0625 L 42.03125 -85.488281 L 40.605469 -87.980469 L 39.359375 -91.363281 L 39.179688 -92.609375 L 39.179688 -94.925781 L 39.359375 -97.417969 L 39.894531 -99.199219 L 40.070312 -100.445312 L 40.785156 -102.226562 L 41.320312 -103.476562 L 42.210938 -104.722656 L 44.167969 -105.613281 L 46.304688 -106.324219 L 48.621094 -105.96875 L 50.402344 -104.542969 L 52.003906 -102.941406 L 52.539062 -101.871094 L 52.894531 -99.734375 L 52.894531 -95.636719 L 52.359375 -90.117188 L 52.003906 -88.691406 L 52.183594 -86.378906 L 53.609375 -85.128906 L 56.101562 -85.128906 L 58.59375 -84.953125 L 68.566406 -84.953125 L 71.773438 -85.128906 L 73.910156 -86.199219 L 74.621094 -90.117188 L 75.335938 -95.105469 L 75.511719 -98.132812 L 75.335938 -101.695312 L 75.335938 -105.613281 L 74.265625 -109.886719 L 73.734375 -111.132812 L 73.375 -113.09375 L 72.664062 -114.160156 L 71.417969 -116.121094 L 70.882812 -117.011719 L 69.101562 -118.96875 L 68.566406 -119.683594 L 66.609375 -121.460938 L 65.183594 -121.996094 L 63.9375 -123.066406 L 61.800781 -124.132812 L 61.085938 -124.667969 L 59.839844 -124.847656 L 56.8125 -125.738281 L 54.140625 -125.914062 L 52.539062 -126.269531 L 51.292969 -126.269531 L 46.839844 -126.449219 L 41.320312 -126.449219 L 38.292969 -125.558594 L 34.90625 -124.847656 L 32.949219 -123.777344 L 30.097656 -122.710938 L 26.894531 -120.394531 L 24.753906 -118.613281 L 23.6875 -117.542969 L 22.617188 -115.761719 L 22.085938 -115.050781 L 20.660156 -113.449219 L 20.125 -112.558594 L 19.589844 -111.3125 L 18.878906 -109.886719 L 17.808594 -107.570312 L 17.632812 -105.789062 L 17.097656 -104.007812 L 16.386719 -102.761719 L 16.207031 -100.269531 L 15.671875 -99.023438 L 15.316406 -95.460938 L 15.316406 -90.296875 L 15.136719 -89.050781 L 15.316406 -87.625 L 15.496094 -85.308594 L 16.207031 -82.992188 L 16.5625 -81.570312 L 17.097656 -80.320312 L 17.988281 -79.074219 L 18.699219 -77.472656 L 19.769531 -74.800781 L 20.835938 -73.019531 L 21.726562 -71.773438 L 23.507812 -70.347656 L 25.289062 -68.390625 L 26.894531 -66.074219 L 29.03125 -63.757812 L 30.988281 -61.445312 L 31.703125 -60.375 L 32.59375 -59.484375 L 34.550781 -57.167969 L 35.441406 -55.746094 L 36.6875 -54.496094 L 37.222656 -53.609375 L 37.578125 -52.71875 L 38.292969 -51.648438 L 39.539062 -49.15625 L 40.960938 -47.019531 L 42.386719 -44.523438 L 42.921875 -41.851562 L 42.921875 -40.785156 L 43.632812 -37.578125 L 43.632812 -34.730469 L 43.8125 -32.234375 L 43.8125 -30.988281 L 43.632812 -29.207031 L 43.277344 -27.070312 L 42.566406 -24.933594 L 41.851562 -23.6875 L 40.960938 -22.085938 L 40.070312 -21.195312 L 38.113281 -20.660156 L 36.6875 -20.304688 L 35.085938 -20.304688 L 32.769531 -20.835938 L 30.988281 -22.617188 L 29.742188 -25.289062 L 29.207031 -27.070312 L 28.851562 -30.988281 L 28.851562 -34.730469 L 29.03125 -35.976562 L 29.03125 -42.566406 L 27.605469 -45.058594 L 25.289062 -45.238281 L 15.316406 -45.238281 L 13.179688 -45.414062 L 8.90625 -45.058594 L 6.410156 -43.8125 L 5.878906 -40.960938 L 5.519531 -39.714844 L 5.34375 -38.292969 L 4.988281 -35.621094 L 5.164062 -34.371094 L 4.988281 -31.34375 L 4.988281 -26.003906 L 5.34375 -23.152344 L 5.519531 -22.085938 L 6.054688 -19.589844 L 6.234375 -18.523438 L 7.480469 -15.316406 L 7.835938 -13.890625 L 9.082031 -10.863281 L 10.6875 -8.371094 L 12.46875 -6.234375 L 14.246094 -3.917969 L 16.386719 -2.492188 L 18.164062 -1.246094 L 20.125 -0.535156 L 22.976562 0.710938 L 24.222656 1.070312 L 26.003906 1.425781 L 27.960938 1.78125 L 29.742188 1.78125 L 30.988281 1.960938 Z M 35.261719 2.316406 "/></g></g></g><g fill="rgb(100%, 100%, 100%)" fill-opacity="1"><g transform="translate(223.803296, 150.270777)"><g><path d="M 14.425781 0.355469 L 15.851562 0.179688 L 20.835938 0.355469 L 21.90625 -0.355469 L 22.617188 -1.601562 L 23.152344 -2.492188 L 23.6875 -4.453125 L 24.753906 -7.125 L 26.535156 -10.507812 L 27.25 -12.644531 L 27.785156 -13.890625 L 28.140625 -15.136719 L 29.386719 -17.453125 L 30.277344 -19.414062 L 35.085938 -19.414062 L 42.921875 -19.234375 L 45.769531 -18.878906 L 49.6875 -18.699219 L 49.867188 -17.277344 L 49.867188 -8.90625 L 49.6875 -7.125 L 49.867188 -5.34375 L 50.046875 -2.136719 L 50.402344 -0.355469 L 51.113281 0.179688 L 53.785156 0.179688 L 56.101562 0.355469 L 57.882812 0.179688 L 59.128906 0 L 61.265625 0.179688 L 62.691406 0.179688 L 66.609375 0 L 69.101562 0 L 70.527344 0.179688 L 71.773438 0 C 72.484375 0 73.019531 0.179688 73.734375 0 C 74.621094 -0.535156 74.445312 -2.136719 74.265625 -2.847656 L 74.265625 -6.589844 L 74.089844 -10.507812 L 74.089844 -12.109375 L 73.910156 -13.535156 L 74.089844 -16.027344 L 74.089844 -18.699219 L 73.910156 -19.945312 L 73.734375 -22.261719 L 73.734375 -23.332031 L 73.375 -30.097656 L 73.554688 -31.34375 L 73.375 -33.839844 L 73.554688 -36.511719 L 73.375 -39.179688 L 73.375 -40.429688 L 73.199219 -48.621094 L 73.199219 -53.964844 L 73.019531 -55.386719 L 72.84375 -57.527344 L 72.84375 -64.472656 L 72.484375 -66.429688 L 72.308594 -69.28125 L 72.308594 -70.347656 L 72.128906 -72.664062 L 72.308594 -73.734375 L 72.128906 -76.226562 L 72.128906 -79.789062 L 71.773438 -82.28125 L 71.773438 -86.199219 L 71.953125 -87.445312 L 71.773438 -90.117188 L 71.773438 -92.609375 L 71.417969 -96.171875 L 71.238281 -98.488281 L 71.238281 -100.980469 L 71.0625 -107.394531 L 71.0625 -110.597656 L 70.703125 -111.667969 L 70.703125 -115.585938 L 70.171875 -123.242188 L 68.925781 -124.132812 L 68.035156 -124.492188 L 65.183594 -124.492188 L 63.582031 -124.3125 L 62.335938 -124.667969 L 60.730469 -124.667969 L 57.347656 -124.492188 L 54.496094 -124.492188 L 52.71875 -124.3125 L 49.332031 -124.492188 L 47.550781 -124.492188 L 46.304688 -124.3125 L 45.59375 -122.351562 L 45.058594 -121.285156 L 44.523438 -120.039062 L 42.921875 -116.832031 L 41.675781 -114.515625 L 40.605469 -111.3125 L 40.25 -110.421875 L 39.539062 -109.351562 L 38.46875 -107.394531 L 38.113281 -106.144531 L 37.757812 -105.078125 L 37.222656 -104.007812 L 36.867188 -102.761719 L 35.261719 -99.558594 L 34.730469 -98.308594 L 34.195312 -96.527344 L 33.125 -94.925781 L 32.59375 -93.859375 L 31.703125 -91.542969 L 30.277344 -87.800781 L 29.5625 -86.734375 L 28.671875 -85.488281 L 28.140625 -82.992188 L 27.070312 -80.679688 L 26.714844 -79.789062 L 26.179688 -77.472656 L 25.289062 -76.226562 L 24.753906 -73.910156 L 24.222656 -72.84375 L 23.152344 -70.882812 L 22.261719 -67.855469 L 21.015625 -65.539062 L 20.480469 -64.117188 L 19.054688 -59.128906 L 18.523438 -58.058594 L 17.632812 -55.566406 L 17.097656 -54.496094 L 16.5625 -53.25 L 16.386719 -52.183594 L 15.316406 -49.6875 L 14.960938 -48.441406 L 13.890625 -46.304688 L 13 -44.878906 L 12.644531 -43.277344 L 12.289062 -42.03125 L 11.042969 -39.539062 L 10.507812 -38.292969 L 9.617188 -35.976562 L 9.082031 -34.90625 L 8.90625 -33.660156 L 8.546875 -32.59375 L 7.660156 -30.453125 L 6.769531 -29.207031 L 6.410156 -28.140625 L 4.988281 -24.933594 L 4.273438 -22.617188 L 2.316406 -18.34375 L 1.425781 -16.207031 L 0.355469 -14.070312 L -1.425781 -8.726562 L -2.847656 -6.410156 L -3.917969 -4.273438 L -4.097656 -3.207031 L -4.453125 -1.960938 L -4.097656 -0.535156 L -2.492188 -0.179688 L 10.507812 0 L 11.753906 0.179688 Z M 43.8125 -42.566406 L 42.210938 -42.742188 L 40.25 -42.921875 L 38.824219 -42.921875 L 37.578125 -43.988281 L 38.113281 -45.238281 L 38.46875 -46.839844 L 38.824219 -48.085938 L 39.714844 -51.113281 L 40.429688 -52.359375 L 41.320312 -55.03125 L 41.496094 -56.277344 L 42.566406 -60.195312 L 43.101562 -61.800781 L 43.632812 -63.046875 L 44.167969 -64.648438 L 44.878906 -65.894531 L 45.058594 -67.144531 L 45.769531 -68.925781 L 46.484375 -70.347656 L 47.375 -73.199219 L 47.910156 -74.980469 L 48.796875 -77.828125 L 49.511719 -80.144531 L 50.9375 -80.679688 L 51.113281 -76.582031 L 50.9375 -70.171875 L 50.757812 -63.402344 L 50.9375 -59.128906 L 50.578125 -57.703125 L 50.578125 -54.675781 L 50.402344 -53.429688 L 50.402344 -48.796875 L 50.222656 -47.375 L 50.402344 -45.949219 L 50.222656 -43.457031 L 49.15625 -42.566406 Z M 43.8125 -42.566406 "/></g></g></g><g fill="rgb(100%, 100%, 100%)" fill-opacity="1"><g transform="translate(303.23387, 150.270777)"><g><path d="M 7.835938 0.179688 L 10.152344 0 L 11.398438 0.179688 L 16.386719 0.179688 L 18.164062 0 L 32.769531 0 L 36.332031 -0.179688 L 38.824219 0.179688 L 41.496094 0 L 44.703125 0.179688 L 48.621094 -0.355469 L 50.9375 -0.710938 L 54.320312 -0.710938 L 55.746094 -1.960938 L 56.457031 -4.808594 L 56.8125 -7.480469 L 56.992188 -8.546875 L 56.992188 -9.796875 L 57.527344 -11.042969 L 58.417969 -17.277344 L 58.949219 -18.699219 L 58.773438 -19.945312 L 59.128906 -21.195312 L 59.304688 -23.863281 L 58.238281 -24.398438 L 53.609375 -24.398438 L 49.6875 -24.222656 L 40.429688 -24.222656 L 38.824219 -24.398438 L 37.042969 -24.398438 L 36.152344 -25.289062 L 36.152344 -27.070312 L 36.511719 -28.851562 L 36.6875 -30.8125 L 37.042969 -32.058594 L 37.222656 -33.125 L 37.402344 -34.371094 L 37.402344 -36.152344 L 37.757812 -37.757812 L 37.933594 -40.070312 L 38.648438 -42.386719 L 38.824219 -44.878906 L 39.179688 -46.304688 L 39.179688 -47.550781 L 39.894531 -50.402344 L 40.070312 -51.648438 L 40.25 -53.074219 L 40.785156 -55.566406 L 40.960938 -58.238281 L 41.675781 -61.085938 L 41.851562 -62.335938 L 42.386719 -65.003906 L 42.742188 -66.253906 L 42.742188 -68.746094 L 43.101562 -69.992188 L 43.632812 -73.734375 L 43.632812 -75.15625 L 43.988281 -76.402344 L 43.8125 -77.828125 L 44.523438 -79.074219 L 45.058594 -81.390625 L 45.59375 -83.882812 L 45.949219 -85.128906 L 46.128906 -86.378906 L 46.484375 -87.800781 L 46.128906 -89.226562 L 46.839844 -90.472656 L 47.195312 -92.96875 L 47.910156 -95.460938 L 47.910156 -96.886719 L 48.441406 -99.378906 L 49.867188 -105.613281 L 50.222656 -107.394531 L 50.578125 -109.351562 L 51.113281 -113.09375 L 51.46875 -114.160156 L 51.46875 -115.40625 L 52.539062 -119.683594 L 52.539062 -120.929688 L 52.71875 -122.175781 L 52.183594 -124.3125 L 48.621094 -124.492188 L 41.675781 -124.492188 L 35.085938 -124.667969 L 30.8125 -124.667969 L 27.960938 -124.3125 L 27.425781 -123.242188 L 26.535156 -119.683594 L 26.179688 -118.613281 L 26.179688 -117.367188 L 26.003906 -115.230469 L 25.289062 -113.09375 L 24.753906 -110.242188 L 24.578125 -107.394531 L 23.863281 -106.144531 L 23.863281 -105.078125 L 23.6875 -103.832031 L 23.6875 -102.585938 L 22.976562 -101.515625 L 22.617188 -99.558594 L 22.441406 -97.242188 L 22.085938 -95.816406 L 22.441406 -94.570312 L 22.085938 -93.144531 L 21.371094 -90.652344 L 20.835938 -89.226562 L 21.015625 -87.800781 L 20.480469 -84.0625 L 20.125 -81.925781 L 20.125 -80.679688 L 19.234375 -78.363281 L 19.234375 -75.871094 L 19.054688 -74.445312 L 18.164062 -72.128906 L 17.808594 -69.992188 L 17.453125 -67.675781 L 16.386719 -62.691406 L 16.386719 -61.800781 L 15.671875 -59.304688 L 14.960938 -53.964844 L 14.070312 -51.46875 L 14.070312 -50.222656 L 13.355469 -47.730469 L 13.355469 -46.660156 L 13.179688 -45.414062 L 13 -44.347656 L 13 -41.851562 L 12.644531 -40.785156 L 12.289062 -38.292969 L 12.109375 -37.222656 L 12.109375 -36.152344 L 11.578125 -34.90625 L 11.042969 -32.59375 L 11.21875 -31.523438 L 10.6875 -30.277344 L 10.328125 -29.207031 L 9.4375 -26.714844 L 9.4375 -24.578125 L 9.082031 -22.976562 L 8.726562 -20.660156 L 8.546875 -19.589844 L 8.546875 -18.34375 L 7.835938 -16.027344 L 7.835938 -13.355469 L 7.125 -11.042969 L 6.945312 -9.972656 L 6.769531 -8.726562 L 6.234375 -6.945312 L 5.519531 -5.164062 L 5.34375 -4.097656 L 5.519531 -3.027344 L 5.699219 -1.78125 L 6.410156 -0.710938 Z M 7.835938 0.179688 "/></g></g></g><g fill="rgb(100%, 100%, 100%)" fill-opacity="1"><g transform="translate(365.923508, 150.270777)"><g><path d="M 26.179688 0.179688 L 27.605469 0 L 30.453125 -0.179688 L 34.195312 -0.179688 L 35.261719 -0.355469 L 37.578125 -0.179688 L 40.429688 -0.355469 L 57.347656 -0.355469 L 57.882812 -2.316406 L 58.238281 -3.917969 L 58.417969 -6.945312 L 58.949219 -9.617188 L 59.128906 -10.863281 L 59.484375 -11.933594 L 59.839844 -13.179688 L 59.839844 -15.496094 L 60.554688 -19.414062 L 60.730469 -20.835938 L 61.085938 -22.796875 L 61.265625 -23.507812 L 61.445312 -24.933594 L 60.195312 -25.46875 L 55.210938 -25.289062 L 51.292969 -25.46875 L 48.796875 -25.644531 L 38.292969 -25.644531 L 35.796875 -26.003906 L 35.085938 -26.714844 L 35.085938 -28.140625 L 35.796875 -32.769531 L 36.332031 -35.976562 L 36.6875 -37.222656 L 36.867188 -39.003906 L 37.222656 -40.605469 L 37.757812 -42.386719 L 38.46875 -47.375 L 39.003906 -49.6875 L 39.714844 -51.648438 L 41.320312 -51.648438 L 43.632812 -51.828125 L 45.59375 -51.828125 L 48.621094 -51.648438 L 53.074219 -51.828125 L 54.675781 -51.828125 L 57.347656 -52.003906 L 59.128906 -52.003906 L 59.484375 -52.359375 L 59.839844 -54.855469 L 60.375 -57.703125 L 60.730469 -60.195312 L 61.265625 -61.621094 L 61.265625 -62.867188 L 61.800781 -65.539062 L 62.15625 -66.785156 L 62.691406 -69.28125 L 63.046875 -71.238281 L 63.046875 -72.664062 L 63.402344 -74.800781 L 62.335938 -76.226562 L 60.910156 -76.582031 L 56.277344 -76.582031 L 52.894531 -76.226562 L 46.660156 -76.402344 L 43.457031 -76.402344 L 43.8125 -79.609375 L 44.347656 -81.390625 L 44.167969 -82.816406 L 44.523438 -84.0625 L 45.058594 -86.554688 L 45.414062 -89.050781 L 45.949219 -92.433594 L 45.949219 -93.859375 L 46.484375 -94.925781 L 46.484375 -97.417969 L 46.660156 -98.667969 L 47.195312 -100.804688 L 51.46875 -100.980469 L 63.046875 -100.980469 L 65.183594 -101.160156 L 72.664062 -101.160156 L 74.445312 -101.335938 L 74.980469 -103.652344 L 75.15625 -104.722656 L 75.871094 -107.214844 L 75.871094 -108.640625 L 76.402344 -111.3125 L 76.582031 -112.378906 L 76.761719 -113.625 L 77.292969 -114.875 L 77.292969 -115.941406 L 77.652344 -120.394531 L 77.652344 -121.460938 L 78.183594 -123.421875 L 77.292969 -124.667969 L 75.691406 -124.847656 L 73.910156 -125.023438 L 72.308594 -124.847656 L 68.390625 -124.847656 L 63.226562 -124.667969 L 61.800781 -124.847656 L 57.703125 -125.023438 L 44.347656 -124.847656 L 40.429688 -124.667969 L 38.648438 -124.667969 L 37.222656 -124.847656 L 35.976562 -124.847656 L 33.839844 -124.667969 L 32.59375 -124.847656 L 31.523438 -124.667969 L 28.496094 -124.667969 L 27.070312 -123.601562 L 26.894531 -122.53125 L 26.359375 -121.460938 L 25.824219 -119.324219 L 26.179688 -118.078125 L 26.003906 -117.011719 L 25.824219 -114.695312 L 25.644531 -113.625 L 25.289062 -112.558594 L 25.113281 -110.242188 L 24.753906 -108.996094 L 24.933594 -107.925781 L 24.398438 -106.679688 L 24.398438 -105.433594 L 23.863281 -104.367188 L 23.507812 -101.871094 L 22.796875 -99.558594 L 22.617188 -98.308594 L 22.796875 -97.242188 L 22.617188 -95.996094 L 22.261719 -94.570312 L 21.550781 -93.5 L 21.371094 -89.761719 L 20.835938 -88.515625 L 20.660156 -83.527344 L 19.945312 -80.855469 L 19.414062 -78.363281 L 19.589844 -77.292969 L 19.234375 -76.046875 L 18.699219 -74.621094 L 17.632812 -69.28125 L 16.917969 -68.210938 L 16.917969 -66.964844 L 16.742188 -65.71875 L 16.5625 -64.292969 L 16.027344 -63.046875 L 15.671875 -60.375 L 14.960938 -57.882812 L 14.960938 -55.210938 L 14.246094 -51.46875 L 13.890625 -50.222656 L 13.355469 -47.550781 L 13.179688 -46.304688 L 12.644531 -45.058594 L 12.109375 -42.742188 L 12.289062 -41.675781 L 11.578125 -39.539062 L 11.578125 -38.648438 L 11.21875 -36.332031 L 10.863281 -34.90625 L 10.863281 -33.660156 L 10.507812 -30.8125 L 9.796875 -29.386719 L 9.4375 -27.070312 L 9.261719 -24.578125 L 9.082031 -23.332031 L 8.726562 -21.90625 L 8.726562 -20.660156 L 8.371094 -19.414062 L 8.371094 -17.808594 L 7.835938 -16.386719 L 7.660156 -13.535156 L 6.945312 -10.863281 L 6.589844 -8.015625 L 6.234375 -5.34375 L 5.878906 -3.738281 L 5.34375 -2.136719 L 5.878906 -0.535156 L 7.480469 -0.179688 L 16.917969 -0.179688 L 18.164062 0 L 22.796875 0 Z M 26.179688 0.179688 "/></g></g></g><g fill="rgb(100%, 100%, 100%)" fill-opacity="1"><g transform="translate(433.065474, 150.270777)"><g><path d="M 23.507812 0.355469 L 24.933594 0.179688 L 27.605469 0 L 29.207031 -0.179688 L 30.988281 0 L 31.523438 -1.601562 L 32.058594 -2.847656 L 32.234375 -4.988281 L 32.414062 -6.234375 L 32.414062 -7.300781 L 32.59375 -8.546875 L 32.769531 -10.863281 L 32.769531 -11.933594 L 33.125 -13.179688 L 32.949219 -14.246094 L 33.480469 -16.742188 L 33.480469 -18.164062 L 33.839844 -19.234375 L 34.015625 -20.660156 L 34.730469 -24.398438 L 35.085938 -25.824219 L 35.085938 -29.5625 L 35.796875 -30.988281 L 36.152344 -33.480469 L 36.152344 -34.550781 L 36.511719 -37.042969 L 37.402344 -39.359375 L 37.402344 -42.386719 L 37.933594 -46.128906 L 38.113281 -47.550781 L 38.648438 -50.046875 L 39.003906 -51.113281 L 39.179688 -51.828125 L 40.429688 -51.648438 L 41.140625 -50.9375 L 41.851562 -49.511719 L 42.210938 -48.085938 L 42.921875 -46.660156 L 43.277344 -44.878906 L 43.8125 -42.386719 L 44.167969 -41.496094 L 44.347656 -39.003906 L 45.058594 -36.6875 L 45.414062 -34.371094 L 45.769531 -33.125 L 46.484375 -30.988281 L 46.660156 -29.742188 L 47.730469 -26.535156 L 47.730469 -24.398438 L 48.441406 -22.617188 L 48.976562 -20.660156 L 49.15625 -19.414062 L 49.6875 -18.34375 L 49.6875 -17.097656 L 50.222656 -15.851562 L 50.578125 -13.535156 L 50.9375 -13 L 51.46875 -11.578125 L 51.46875 -10.152344 L 52.539062 -7.480469 L 53.074219 -5.519531 L 53.429688 -4.628906 L 53.964844 -2.492188 L 54.320312 -1.601562 L 55.921875 0 L 56.992188 0.179688 L 58.59375 0 L 60.019531 0 L 61.976562 -0.179688 L 64.292969 -0.179688 L 68.925781 -0.710938 L 72.664062 -1.246094 L 74.980469 -1.246094 L 76.9375 -1.601562 L 77.828125 -1.78125 L 78.363281 -4.097656 L 77.117188 -7.480469 L 76.761719 -9.082031 L 76.582031 -10.328125 L 76.402344 -12.46875 L 75.15625 -15.496094 L 74.800781 -17.988281 L 72.84375 -24.398438 L 72.484375 -26.714844 L 71.59375 -29.386719 L 71.59375 -30.453125 L 70.882812 -32.769531 L 70.527344 -34.195312 L 69.992188 -35.441406 L 69.636719 -37.933594 L 69.28125 -39.003906 L 68.746094 -41.320312 L 68.210938 -42.386719 L 67.855469 -44.703125 L 67.675781 -46.128906 L 66.964844 -47.195312 L 66.609375 -49.511719 L 66.609375 -51.113281 L 65.71875 -53.785156 L 65.183594 -55.210938 L 65.183594 -56.8125 L 66.429688 -56.992188 L 68.925781 -58.238281 L 72.484375 -60.554688 L 74.980469 -63.226562 L 75.871094 -64.117188 L 77.828125 -66.429688 L 78.363281 -67.5 L 79.789062 -69.8125 L 80.5 -71.417969 L 81.035156 -72.664062 L 82.636719 -74.980469 L 83.527344 -77.117188 L 84.0625 -78.363281 L 84.417969 -79.433594 L 84.773438 -80.679688 L 85.488281 -82.816406 L 86.019531 -84.597656 L 86.378906 -87.445312 L 86.910156 -90.296875 L 86.910156 -91.542969 L 86.734375 -94.214844 L 86.910156 -95.460938 L 87.445312 -97.953125 L 87.445312 -99.378906 L 86.910156 -102.761719 L 86.910156 -104.007812 L 86.554688 -107.394531 L 86.019531 -110.242188 L 84.773438 -112.734375 L 83.527344 -114.875 L 82.816406 -115.761719 L 81.925781 -116.832031 L 81.210938 -117.542969 L 79.074219 -118.792969 L 78.183594 -119.324219 L 77.117188 -119.859375 L 75.511719 -120.929688 L 74.265625 -121.285156 L 72.664062 -121.996094 L 70.703125 -122.886719 L 69.28125 -123.242188 L 66.429688 -123.242188 L 64.472656 -123.601562 L 61.800781 -123.777344 L 59.484375 -124.132812 L 57.882812 -124.132812 L 55.210938 -124.492188 L 53.785156 -124.847656 L 52.003906 -124.667969 L 50.757812 -124.492188 L 43.101562 -124.492188 L 32.414062 -124.667969 L 29.921875 -124.667969 L 28.140625 -124.3125 L 26.894531 -122.886719 L 26.179688 -121.996094 L 26.359375 -120.039062 L 25.644531 -118.613281 L 25.644531 -117.1875 L 25.46875 -115.941406 L 25.289062 -114.515625 L 24.578125 -109.53125 L 24.042969 -106.679688 L 23.507812 -104.542969 L 23.152344 -103.296875 L 23.152344 -102.226562 L 22.976562 -99.914062 L 22.976562 -98.84375 L 22.796875 -97.777344 L 22.261719 -95.28125 L 21.726562 -92.433594 L 21.195312 -89.9375 L 21.015625 -88.871094 L 20.835938 -86.378906 L 20.125 -84.242188 L 19.945312 -83.171875 L 19.945312 -81.925781 L 19.769531 -80.855469 L 19.414062 -78.542969 L 19.234375 -77.292969 L 19.054688 -76.226562 L 19.054688 -74.980469 L 18.164062 -71.238281 L 18.164062 -69.8125 L 17.808594 -67.320312 L 17.453125 -65.003906 L 17.277344 -63.9375 L 16.917969 -61.976562 L 16.5625 -60.730469 L 16.5625 -59.664062 L 16.027344 -58.59375 L 15.671875 -57.347656 L 15.496094 -55.210938 L 15.671875 -54.140625 L 15.316406 -53.074219 L 14.425781 -51.828125 L 14.425781 -50.222656 L 14.246094 -48.796875 L 14.070312 -47.550781 L 13.355469 -45.058594 L 13.355469 -43.632812 L 13.179688 -40.960938 L 12.824219 -39.179688 L 12.824219 -37.578125 L 11.933594 -34.371094 L 11.933594 -31.703125 L 11.21875 -30.277344 L 11.398438 -28.851562 L 11.21875 -27.605469 L 10.863281 -26.179688 L 10.6875 -23.6875 L 10.152344 -22.261719 L 10.328125 -21.015625 L 9.796875 -19.589844 L 9.796875 -18.34375 L 9.261719 -15.851562 L 9.082031 -14.605469 L 9.082031 -13.535156 L 8.546875 -12.289062 L 8.546875 -11.042969 L 8.191406 -9.972656 L 8.191406 -8.726562 L 8.015625 -6.769531 L 7.835938 -4.988281 L 7.300781 -3.207031 L 7.300781 -1.601562 L 7.660156 -0.535156 L 9.261719 -0.179688 L 14.78125 0.179688 L 17.097656 0.179688 Z M 46.660156 -73.019531 L 43.632812 -73.375 L 43.8125 -74.800781 L 43.632812 -76.046875 L 43.8125 -77.292969 L 44.347656 -80.144531 L 44.703125 -81.746094 L 44.523438 -83.351562 L 45.058594 -84.953125 L 45.414062 -87.625 L 45.414062 -88.871094 L 45.949219 -91.71875 L 46.304688 -93.144531 L 46.484375 -95.460938 L 46.660156 -98.132812 L 47.019531 -100.980469 L 47.550781 -102.226562 L 48.085938 -104.1875 L 49.6875 -104.722656 L 53.964844 -104.542969 L 57.882812 -104.007812 L 59.484375 -103.117188 L 60.730469 -101.871094 L 61.621094 -100.269531 L 62.15625 -96.527344 L 62.335938 -92.609375 L 62.15625 -89.761719 L 61.621094 -88.335938 L 61.621094 -86.910156 L 60.375 -84.417969 L 60.195312 -83.351562 L 59.839844 -81.925781 L 58.949219 -79.609375 L 57.703125 -78.542969 L 56.992188 -77.472656 L 55.746094 -76.046875 L 54.496094 -75.335938 L 52.71875 -74.265625 L 51.648438 -73.554688 L 49.511719 -73.019531 Z M 46.660156 -73.019531 "/></g></g></g><g fill="rgb(100%, 100%, 100%)" fill-opacity="1"><g transform="translate(516.770337, 150.270777)"><g><path d="M 22.085938 0.535156 L 24.222656 0 L 39.714844 0 L 41.851562 -0.890625 L 42.210938 -1.960938 L 42.742188 -4.453125 L 43.101562 -6.945312 L 44.167969 -11.933594 L 45.058594 -15.851562 L 44.878906 -17.277344 L 45.414062 -19.769531 L 45.769531 -21.195312 L 46.660156 -24.933594 L 47.195312 -27.25 L 47.375 -28.496094 L 48.085938 -30.8125 L 48.621094 -33.660156 L 49.15625 -36.152344 L 48.976562 -37.402344 L 49.15625 -38.46875 L 49.332031 -39.714844 L 50.046875 -41.851562 L 50.222656 -43.101562 L 50.578125 -44.167969 L 50.757812 -45.238281 L 50.757812 -47.019531 L 51.113281 -48.621094 L 51.648438 -51.292969 L 52.183594 -53.785156 L 52.183594 -54.855469 L 52.539062 -55.921875 L 52.71875 -58.417969 L 53.429688 -59.664062 L 53.964844 -61.800781 L 54.140625 -64.117188 L 54.140625 -65.363281 L 54.675781 -66.429688 L 55.210938 -68.925781 L 55.566406 -70.171875 L 55.921875 -72.84375 L 56.8125 -74.980469 L 56.8125 -76.226562 L 56.992188 -77.292969 L 57.167969 -79.433594 L 57.167969 -80.5 L 57.882812 -82.816406 L 58.773438 -85.308594 L 58.417969 -86.199219 L 59.128906 -87.625 L 59.839844 -90.828125 L 60.019531 -92.078125 L 60.375 -94.390625 L 60.730469 -95.460938 L 60.730469 -96.527344 L 61.265625 -97.777344 L 61.085938 -98.84375 L 61.445312 -100.089844 L 63.046875 -100.269531 L 70.527344 -100.089844 L 72.308594 -100.089844 L 73.910156 -100.269531 L 76.046875 -100.269531 L 77.652344 -100.089844 L 79.433594 -100.269531 L 80.144531 -101.871094 L 80.320312 -104.367188 L 80.679688 -105.613281 L 81.390625 -107.925781 L 81.570312 -110.066406 L 81.746094 -111.132812 L 82.101562 -112.378906 L 82.460938 -114.515625 L 82.460938 -115.585938 L 82.816406 -116.832031 L 82.992188 -117.902344 L 82.992188 -119.148438 L 83.351562 -120.574219 L 83.527344 -121.820312 L 83.527344 -122.886719 L 83.171875 -124.3125 L 81.570312 -124.667969 L 79.074219 -124.847656 L 68.035156 -124.847656 L 66.429688 -125.023438 L 62.691406 -124.847656 L 60.019531 -125.023438 L 48.621094 -124.847656 L 44.703125 -124.847656 L 43.457031 -125.023438 L 30.277344 -125.023438 L 29.03125 -124.847656 L 27.785156 -124.847656 L 26.894531 -125.023438 L 22.261719 -125.023438 L 21.015625 -124.847656 L 19.414062 -123.601562 L 18.523438 -121.640625 L 18.34375 -120.574219 L 18.34375 -118.078125 L 17.808594 -117.011719 L 17.097656 -114.695312 L 16.917969 -112.203125 L 16.5625 -111.132812 L 15.851562 -108.640625 L 16.027344 -107.394531 L 16.027344 -105.96875 L 15.496094 -104.542969 L 15.136719 -102.40625 L 15.671875 -100.804688 L 17.277344 -100.269531 L 18.699219 -100.269531 L 20.480469 -100.089844 L 22.085938 -100.089844 L 23.332031 -100.269531 L 25.824219 -100.089844 L 35.441406 -100.089844 L 35.261719 -97.242188 L 34.90625 -94.570312 L 34.550781 -93.324219 L 34.015625 -91.007812 L 34.015625 -89.9375 L 33.839844 -88.691406 L 33.839844 -87.625 L 33.660156 -86.554688 L 32.769531 -83.707031 L 32.414062 -82.460938 L 32.234375 -81.210938 L 32.234375 -79.789062 L 31.878906 -78.898438 L 31.878906 -77.117188 L 30.988281 -75.15625 L 31.167969 -73.910156 L 30.632812 -71.238281 L 30.277344 -70.171875 L 30.277344 -68.925781 L 29.5625 -67.855469 L 29.207031 -66.609375 L 29.207031 -65.003906 L 28.671875 -63.226562 L 28.671875 -60.730469 L 28.316406 -59.664062 L 27.425781 -57.527344 L 27.785156 -56.277344 L 27.425781 -55.03125 L 26.714844 -52.359375 L 25.824219 -49.867188 L 25.46875 -48.621094 L 25.289062 -47.375 L 25.644531 -45.59375 L 24.753906 -43.8125 L 24.578125 -41.320312 L 24.222656 -40.25 L 23.863281 -37.933594 L 23.6875 -36.6875 L 23.332031 -35.441406 L 22.796875 -32.769531 L 22.261719 -30.632812 L 22.261719 -29.207031 L 21.371094 -25.46875 L 21.550781 -24.042969 L 21.371094 -22.796875 L 20.480469 -20.304688 L 20.480469 -19.054688 L 20.304688 -16.5625 L 19.945312 -15.496094 L 19.769531 -12.824219 L 19.414062 -11.578125 L 18.164062 -7.835938 L 17.988281 -4.097656 L 17.632812 -1.425781 L 19.234375 0 L 20.480469 0 Z M 22.085938 0.535156 "/></g></g></g><g clip-path="url(#id1)"><path fill="rgb(82.348633%, 90.979004%, 92.158508%)" d="M 619.714844 67.414062 L 647.9375 67.414062 C 647.9375 94.535156 636.140625 110.835938 626.964844 111.609375 C 626.382812 111.628906 625.804688 111.640625 625.21875 111.640625 L 619.714844 111.640625 C 613.59375 111.640625 608.054688 109.164062 604.042969 105.164062 C 600.03125 101.160156 597.546875 95.636719 597.546875 89.527344 C 597.546875 77.316406 607.472656 67.414062 619.714844 67.414062 " fill-opacity="1" fill-rule="nonzero"/></g><g clip-path="url(#id2)"><path fill="rgb(100%, 100%, 100%)" d="M 692.273438 39.265625 L 692.273438 51.945312 C 692.273438 61.851562 688.332031 71.351562 681.308594 78.355469 L 664.003906 95.617188 C 654.128906 105.464844 640.878906 111.171875 626.964844 111.609375 C 636.140625 110.835938 647.9375 94.535156 647.9375 67.414062 L 647.9375 39.265625 C 647.9375 27.054688 657.863281 17.152344 670.105469 17.152344 C 682.351562 17.152344 692.273438 27.054688 692.273438 39.265625 " fill-opacity="1" fill-rule="nonzero"/></g><g clip-path="url(#id3)"><path fill="rgb(82.348633%, 90.979004%, 92.158508%)" d="M 720.496094 119.34375 L 692.273438 119.34375 C 692.273438 92.226562 704.070312 75.925781 713.25 75.148438 C 713.828125 75.128906 714.410156 75.117188 714.992188 75.117188 L 720.496094 75.117188 C 726.617188 75.117188 732.160156 77.59375 736.171875 81.597656 C 740.183594 85.597656 742.667969 91.125 742.667969 97.230469 C 742.667969 109.445312 732.742188 119.34375 720.496094 119.34375 " fill-opacity="1" fill-rule="nonzero"/></g><g clip-path="url(#id4)"><path fill="rgb(100%, 100%, 100%)" d="M 647.9375 147.492188 L 647.9375 134.8125 C 647.9375 124.90625 651.882812 115.40625 658.90625 108.402344 L 676.210938 91.140625 C 686.085938 81.292969 699.335938 75.589844 713.25 75.148438 C 704.070312 75.925781 692.273438 92.226562 692.273438 119.34375 L 692.273438 147.492188 C 692.273438 159.707031 682.351562 169.605469 670.105469 169.605469 C 657.863281 169.605469 647.9375 159.707031 647.9375 147.492188 " fill-opacity="1" fill-rule="nonzero"/></g></svg>